<svg xmlns="http://www.w3.org/2000/svg" width="130.989" height="145.543" viewBox="0 0 130.989 145.543">
  <path id="_26" data-name="26" d="M68.494,60.217A29.109,29.109,0,1,1,97.6,31.109,29.109,29.109,0,0,1,68.494,60.217Zm0-43.663A14.554,14.554,0,1,0,83.049,31.109,14.554,14.554,0,0,0,68.494,16.554Zm58.217,130.989H10.277A7.277,7.277,0,0,1,3,140.266a65.494,65.494,0,1,1,130.989,0A7.277,7.277,0,0,1,126.712,147.543ZM18.064,132.989H118.925a50.94,50.94,0,0,0-100.861,0Z" transform="translate(-3 -2)" fill="#fff"/>
</svg>
