<svg xmlns="http://www.w3.org/2000/svg" width="25.102" height="25.091" viewBox="0 0 25.102 25.091">
  <g id="contact" transform="translate(-2.925 -2.964)">
    <path id="Path_1661" data-name="Path 1661" d="M21.834,2.974a6.381,6.381,0,0,1,6.172,6.172c.014,4.252.04,8.5,0,12.756a6.381,6.381,0,0,1-6.171,6.132c-4.252.014-8.5.04-12.756,0a6.382,6.382,0,0,1-6.132-6.171c-.013-4.252-.04-8.5,0-12.756A6.382,6.382,0,0,1,9.118,2.974Q15.476,2.954,21.834,2.974ZM9.159,4.645A4.656,4.656,0,0,0,4.616,9.157c-.013,4.242-.04,8.483,0,12.724a4.665,4.665,0,0,0,4.512,4.483c4.242.014,8.483.04,12.724,0a4.664,4.664,0,0,0,4.483-4.512c.014-4.242.04-8.483,0-12.724a4.662,4.662,0,0,0-4.512-4.483C17.6,4.631,13.38,4.645,9.159,4.645Z" transform="translate(0 0)"/>
    <path id="Path_1662" data-name="Path 1662" d="M27.169,15.414a5.564,5.564,0,0,1,5.253,6.124A5.552,5.552,0,0,1,27.1,26.161a5.567,5.567,0,0,1-5.29-6.324,5.5,5.5,0,0,1,5.221-4.423Zm-.117,1.67a3.839,3.839,0,0,0-3.29,5.307,3.857,3.857,0,0,0,5.892,1.076c2.025-1.93.954-6.317-2.506-6.383Zm.131,10.191A9.081,9.081,0,0,1,35.117,32.3.867.867,0,0,1,34.088,33.5c-.529-.211-.673-.907-1.012-1.4A7.459,7.459,0,0,0,23.4,29.964a7.368,7.368,0,0,0-2.842,3.123,1.045,1.045,0,0,1-.713.473c-.655.031-1.071-.691-.619-1.542A9.078,9.078,0,0,1,27.183,27.275Z" transform="translate(-11.624 -8.983)"/>
  </g>
</svg>
