<svg xmlns="http://www.w3.org/2000/svg" width="152.407" height="103.914" viewBox="0 0 152.407 103.914">
  <g id="Group_2569" data-name="Group 2569" transform="translate(-737.797 -254.043)">
    <g id="Group_2567" data-name="Group 2567" transform="translate(735.097 242.043)">
      <path id="XMLID_785_" d="M2.7,30V40.391a3.273,3.273,0,0,0,3.464,3.464H99.686V30ZM61.584,40.391a3.272,3.272,0,0,1-3.464-3.464,3.464,3.464,0,1,1,6.928,0A3.273,3.273,0,0,1,61.584,40.391Z" transform="translate(0 44.348)" fill="#fa0"/>
      <path id="XMLID_777_" d="M69.584,49.855H48.8V36H34.947V49.855H14.164a3.464,3.464,0,1,0,0,6.928H69.584a3.464,3.464,0,1,0,0-6.928Z" transform="translate(19.71 59.131)" fill="#fa0"/>
      <path id="XMLID_784_" d="M32.7,36V53.319a3.273,3.273,0,0,0,3.464,3.464H77.729a3.273,3.273,0,0,0,3.464-3.464V36ZM56.947,49.855a3.464,3.464,0,1,1,3.464-3.464A3.273,3.273,0,0,1,56.947,49.855Z" transform="translate(73.914 59.131)" fill="#fa0"/>
      <path id="XMLID_754_" d="M77.729,18H36.164A3.273,3.273,0,0,0,32.7,21.464V52.638H43.091a3.273,3.273,0,0,0,3.464-3.464V36.7l-1.039,1.039a3.429,3.429,0,0,1-4.849-4.849l6.928-6.928c.346-.346.693-.693,1.039-.693a3.794,3.794,0,0,1,2.771,0c.346.346.693.346,1.039.693l6.928,6.928a3.348,3.348,0,0,1,0,4.849,3.348,3.348,0,0,1-4.849,0L53.483,36.7v12.47A10.206,10.206,0,0,1,43.091,59.565H32.7V73.421H81.193V21.464A3.272,3.272,0,0,0,77.729,18Z" transform="translate(73.914 14.783)" fill="#fff"/>
      <path id="XMLID_772_" d="M89.295,32.783a3.272,3.272,0,0,0-3.464,3.464v12.47l1.039-1.039a3.429,3.429,0,0,1,4.849,4.849l-6.928,6.928c-.346.346-.693.693-1.039.693-.346.346-.693.346-1.386.346s-1.039,0-1.386-.346-.693-.346-1.039-.693l-6.928-6.928a3.429,3.429,0,1,1,4.849-4.849L78.9,48.716V36.247A10.206,10.206,0,0,1,89.295,25.855h31.174V15.464A3.272,3.272,0,0,0,117.005,12H6.164A3.272,3.272,0,0,0,2.7,15.464V67.421H99.686V36.247a10.248,10.248,0,0,1,.693-3.464Z" transform="translate(0 0)" fill="#fff"/>
    </g>
    <g id="Group_2568" data-name="Group 2568" transform="translate(-4962.613 1597.793)">
      <path id="Path_1681" data-name="Path 1681" d="M6.038,15.32,8.459,17.2,4.493,21.169a3.111,3.111,0,0,1-.561-1.24h0c-.017-.082-.028-.166-.038-.251,0-.022-.007-.043-.01-.066-.011-.107-.016-.215-.016-.324v-1.8Zm8.106-2.164,4.773,3.659v2.472a3.14,3.14,0,0,1-3.147,3.147H7.014c-.1,0-.19-.006-.284-.014l-.089-.01c-.063-.007-.127-.017-.189-.028-.035-.006-.071-.012-.106-.02h0c-.074-.016-.146-.035-.218-.056s-.116-.037-.172-.058l-.047-.017a3.1,3.1,0,0,1-.559-.278ZM9.231,10.265a.907.907,0,1,1-.907.907A.9.9,0,0,1,9.231,10.265Zm0-1.158A2.065,2.065,0,1,0,11.3,11.173,2.074,2.074,0,0,0,9.231,9.107Z" transform="translate(5826.746 -1298.791)" fill="#fa0"/>
      <path id="Path_1736" data-name="Path 1736" d="M6.038,15.32,8.459,17.2,4.493,21.169a3.111,3.111,0,0,1-.561-1.24h0c-.017-.082-.028-.166-.038-.251,0-.022-.007-.043-.01-.066-.011-.107-.016-.215-.016-.324v-1.8Zm8.106-2.164,4.773,3.659v2.472a3.14,3.14,0,0,1-3.147,3.147H7.014c-.1,0-.19-.006-.284-.014l-.089-.01c-.063-.007-.127-.017-.189-.028-.035-.006-.071-.012-.106-.02h0c-.074-.016-.146-.035-.218-.056s-.116-.037-.172-.058l-.047-.017a3.1,3.1,0,0,1-.559-.278ZM9.231,10.265a.907.907,0,1,1-.907.907A.9.9,0,0,1,9.231,10.265Zm0-1.158A2.065,2.065,0,1,0,11.3,11.173,2.074,2.074,0,0,0,9.231,9.107Z" transform="translate(5724.746 -1332.791)" fill="#fa0"/>
      <path id="Path_1689" data-name="Path 1689" d="M9.231,5.59A2.065,2.065,0,1,0,11.3,7.655,2.074,2.074,0,0,0,9.231,5.59ZM7.014,3.867H15.77a3.14,3.14,0,0,1,3.147,3.146v4.826L14.446,8.411a.579.579,0,0,0-.762.05l-4.4,4.4L6.345,10.575a.578.578,0,0,0-.765.048L3.867,12.336V7.013A3.14,3.14,0,0,1,7.014,3.867Z" transform="translate(5826.746 -1295.273)" fill="#fa0"/>
      <path id="Path_1737" data-name="Path 1737" d="M9.231,5.59A2.065,2.065,0,1,0,11.3,7.655,2.074,2.074,0,0,0,9.231,5.59ZM7.014,3.867H15.77a3.14,3.14,0,0,1,3.147,3.146v4.826L14.446,8.411a.579.579,0,0,0-.762.05l-4.4,4.4L6.345,10.575a.578.578,0,0,0-.765.048L3.867,12.336V7.013A3.14,3.14,0,0,1,7.014,3.867Z" transform="translate(5724.746 -1329.273)" fill="#fa0"/>
    </g>
  </g>
</svg>
