<svg xmlns="http://www.w3.org/2000/svg" width="143.164" height="143.425" viewBox="0 0 143.164 143.425">
  <g id="_70-Shutter" data-name="70-Shutter" transform="translate(5.221 5.221)">
    <path id="Path_1731" data-name="Path 1731" d="M89.835,7.764,31.107,66.492,2.13,37.515A65.452,65.452,0,0,1,89.835,7.764Z" transform="translate(5.634 0)" fill="none" stroke="#fff" stroke-linecap="round" stroke-linejoin="round" stroke-width="12"/>
    <rect id="Rectangle_1826" data-name="Rectangle 1826" width="42.068" height="42.068" transform="translate(36.704 66.492) rotate(-45)" fill="none" stroke="#fff" stroke-linecap="round" stroke-linejoin="round" stroke-width="12"/>
    <path id="Path_1732" data-name="Path 1732" d="M94.835,40.977A65.452,65.452,0,0,1,7.13,70.728L65.858,12Z" transform="translate(30.385 54.492)" fill="none" stroke="#fff" stroke-linecap="round" stroke-linejoin="round" stroke-width="12"/>
    <rect id="Rectangle_1827" data-name="Rectangle 1827" width="42.068" height="42.068" transform="translate(36.704 66.492) rotate(-45)" fill="none" stroke="#fff" stroke-linecap="round" stroke-linejoin="round" stroke-width="12"/>
    <path id="Path_1733" data-name="Path 1733" d="M131.944,60.858a65.451,65.451,0,0,1-6.724,28.977L66.492,31.107,95.469,2.13a65.452,65.452,0,0,1,36.474,58.728ZM66.492,90.609,37.515,119.586A65.452,65.452,0,0,1,7.764,31.881Z" transform="translate(0 5.634)" fill="none" stroke="#fff" stroke-linecap="round" stroke-linejoin="round" stroke-width="12"/>
    <rect id="Rectangle_1828" data-name="Rectangle 1828" width="42.068" height="42.068" transform="translate(36.704 66.492) rotate(-45)" fill="none" stroke="#fff" stroke-linecap="round" stroke-linejoin="round" stroke-width="12"/>
  </g>
</svg>
