<svg xmlns="http://www.w3.org/2000/svg" width="156.938" height="250.465" viewBox="0 0 156.938 250.465"><defs><style>.a{fill:#f2f2f2;}.b{fill:#2f2e41;}.c{fill:#3f3d56;}.d{fill:#f7db02;}.e{fill:#ffb6b6;}.f{fill:#e4e4e4;}.g{fill:#cacaca;}</style></defs><g transform="translate(-122.448 0)"><path class="a" d="M366.79,666.761c-9.41,5.074-13.45,15.843-13.45,15.843s11.217,2.542,20.627-2.532,13.45-15.843,13.45-15.843S376.2,661.687,366.79,666.761Z" transform="translate(-227.609 -444.525)"/><path class="a" d="M369.539,652.6c-5.511,9.161-16.459,12.689-16.459,12.689s-2.011-11.325,3.5-20.485,16.459-12.689,16.459-12.689S375.051,643.439,369.539,652.6Z" transform="translate(-227.262 -426.876)"/><rect class="b" width="33.388" height="19.769" transform="translate(192.177 17.628)"/><path class="c" d="M614.182,193.673H596.968v-6a8.607,8.607,0,1,1,17.214,0Zm-16.833-.381H613.8V187.67a8.226,8.226,0,0,0-16.452,0Z" transform="translate(-455.083 -172.857)"/><path class="c" d="M323.886,42.508V40.162l-43.778,1.173-1.386,59.422,6.479,8Z" transform="translate(-156.275 -22.518)"/><path class="d" d="M338.608,43.622l-47.45,1.08,1.016,66,45.792-4.936Z" transform="translate(-163.248 -24.458)"/><path class="e" d="M480.853,503.841h-5.386L472.9,483.067h7.949Z" transform="translate(-265.15 -270.848)"/><path class="b" d="M745.959,698.268H728.592v-.22a6.76,6.76,0,0,1,6.759-6.759h10.608Z" transform="translate(-528.883 -460.054)"/><path class="e" d="M435.853,503.841h-5.386L427.9,483.067h7.949Z" transform="translate(-239.919 -270.848)"/><path class="b" d="M700.959,698.268H683.592v-.22a6.76,6.76,0,0,1,6.759-6.759h10.608Z" transform="translate(-503.652 -460.054)"/><path class="b" d="M679.227,399.2s-7.869,16.947-.76,51.057,7.168,71.559,7.168,71.559l10.87.177,6.107-80.623,3.2,79.485h10.71l9.439-78.229s6.211-34.932-7.64-41.186Z" transform="translate(-499.11 -296.283)"/><path class="f" d="M714.624,260.263l-23.8-2.194h0c-7.464,5.44-11.653,15.211-10.793,25.293,1.166,13.669.772,32.48-8.585,40.653,0,0,25.5,20.128,48.156,1.032,0,0-7.746-20.752-2.428-29.04S724.41,264.436,714.624,260.263Z" transform="translate(-496.841 -217.155)"/><path class="e" d="M608.493,180.725a4.719,4.719,0,0,0,5.026,5.207l31.426,29.328,5.632-8.58-32.662-26.13a4.745,4.745,0,0,0-9.422.175Z" transform="translate(-461.53 -171.393)"/><path class="f" d="M677.376,243.885l7.455-7.658a2.116,2.116,0,0,1,3.2.192l6.463,8.471a5.877,5.877,0,0,1-8.224,8.4l-8.615-6.211a2.116,2.116,0,0,1-.278-3.192Z" transform="translate(-499.83 -204.55)"/><path class="e" d="M818.816,307.326a4.719,4.719,0,0,0-5.307-4.92L780.5,274.87l-5.147,8.879,34.063,24.275a4.745,4.745,0,0,0,9.4-.7Z" transform="translate(-555.102 -226.575)"/><path class="f" d="M776.54,271.215l-7.018,8.06a2.116,2.116,0,0,1-3.2-.014l-6.924-8.1a5.877,5.877,0,0,1,7.744-8.842l8.947,5.723a2.116,2.116,0,0,1,.455,3.172Z" transform="translate(-545.028 -218.722)"/><path class="c" d="M865.277,361.129h-13.04v-4.547a6.52,6.52,0,0,1,13.04,0Zm-12.751-.289h12.462v-4.258a6.231,6.231,0,1,0-12.462,0Z" transform="translate(-598.208 -268.734)"/><path class="c" d="M578.933,206.624v-1.777l-33.16.889-1.049,45.01,4.907,6.063Z" transform="translate(-305.417 -114.854)"/><path class="d" d="M590.084,207.468l-35.942.818.77,49.992,34.686-3.739Z" transform="translate(-310.698 -116.324)"/><circle class="e" cx="14.058" cy="14.058" r="14.058" transform="translate(193.495 8.841)"/><path class="b" d="M714.289,181.572a14.649,14.649,0,0,0,18.674,1.008,31.536,31.536,0,0,1-6.716,29.731,10.494,10.494,0,0,0,9.059-1.346,18.736,18.736,0,0,0,6.114-7.121,28.754,28.754,0,0,0,2-22.738A24.5,24.5,0,0,0,727,165.613c-7.575-1.983-16.261.467-21.322,6.442-5.292,6.248-6.15,15.4-3.831,23.256s7.406,14.6,12.995,20.581a85.872,85.872,0,0,1-5.3-21.483,19.25,19.25,0,0,1,.262-7.553,7.659,7.659,0,0,1,4.907-5.386" transform="translate(-513.209 -164.937)"/><path class="g" d="M849.276,608.129H836.237v-4.547a6.52,6.52,0,0,1,13.039,0Zm-12.751-.289h12.462v-4.258a6.231,6.231,0,0,0-12.462,0Z" transform="translate(-589.237 -407.223)"/><path class="g" d="M562.933,453.624v-1.777l-33.16.889-1.049,45.01,4.907,6.063Z" transform="translate(-296.447 -253.343)"/><path class="f" d="M574.084,454.468l-35.942.818.77,49.992,34.686-3.739Z" transform="translate(-301.728 -254.813)"/></g></svg>