<svg id="Group_309" data-name="Group 309" xmlns="http://www.w3.org/2000/svg" width="23.257" height="23.257" viewBox="0 0 23.257 23.257">
  <path id="Path_1038" data-name="Path 1038" d="M45.316,42.073a3.376,3.376,0,1,0,3.363,3.389,3.376,3.376,0,0,0-3.363-3.389Zm-.283,4.569a.375.375,0,0,1-.53,0l-.793-.8.533-.528.529.533,1.6-1.586.528.532Z" transform="translate(-26.575 -26.666)" fill="#000005"/>
  <rect id="Rectangle_1600" data-name="Rectangle 1600" height="1" transform="translate(13.629 10.954)" fill="#000005"/>
  <rect id="Rectangle_1601" data-name="Rectangle 1601" width="2" height="1" transform="translate(9.629 10.954)" fill="#000005"/>
  <rect id="Rectangle_1602" data-name="Rectangle 1602" width="2" height="1" transform="translate(9.629 12.954)" fill="#000005"/>
  <rect id="Rectangle_1603" data-name="Rectangle 1603" height="1" transform="translate(13.629 12.954)" fill="#000005"/>
  <rect id="Rectangle_1604" data-name="Rectangle 1604" height="1" transform="translate(13.629 7.954)" fill="#000005"/>
  <path id="Path_1039" data-name="Path 1039" d="M12.629,1A19.427,19.427,0,0,1,2.065,6.467L1,6.646a23.061,23.061,0,0,0,9.678,16.176l1.951,1.435,2.436-1.884q.493-.381.962-.779a4.119,4.119,0,0,1,5-5.726,22.182,22.182,0,0,0,3.233-9.206V6.646l-1.065-.179A19.427,19.427,0,0,1,12.629,1ZM16.38,9.628a.75.75,0,0,1-.75.75.75.75,0,0,1,.75.75v1.5a.75.75,0,0,1-.75.75.75.75,0,0,1,.75.75v1.5a.75.75,0,0,1-.75.75h-6a.75.75,0,0,1-.75-.75v-1.5a.75.75,0,0,1,.75-.75.75.75,0,0,1-.75-.75v-1.5a.75.75,0,0,1,.75-.75.75.75,0,0,1-.75-.75v-1.5a.75.75,0,0,1,.75-.75h6a.75.75,0,0,1,.75.75Z" transform="translate(-1 -1)" fill="#000005"/>
  <rect id="Rectangle_1605" data-name="Rectangle 1605" width="2" height="1" transform="translate(9.629 7.954)" fill="#000005"/>
</svg>
