<svg xmlns="http://www.w3.org/2000/svg" width="131.818" height="145" viewBox="0 0 131.818 145">
  <path id="Path_1729" data-name="Path 1729" d="M67.909,119.636a6.591,6.591,0,1,0-6.591-6.591A6.591,6.591,0,0,0,67.909,119.636Zm32.955,0a6.591,6.591,0,1,0-6.591-6.591A6.591,6.591,0,0,0,100.864,119.636Zm0-26.364a6.591,6.591,0,1,0-6.591-6.591A6.591,6.591,0,0,0,100.864,93.273Zm-32.955,0a6.591,6.591,0,1,0-6.591-6.591A6.591,6.591,0,0,0,67.909,93.273Zm46.136-79.091h-6.591V7.591a6.591,6.591,0,1,0-13.182,0v6.591H41.545V7.591a6.591,6.591,0,1,0-13.182,0v6.591H21.773A19.773,19.773,0,0,0,2,33.955v92.273A19.773,19.773,0,0,0,21.773,146h92.273a19.773,19.773,0,0,0,19.773-19.773V33.955A19.773,19.773,0,0,0,114.045,14.182Zm6.591,112.045a6.591,6.591,0,0,1-6.591,6.591H21.773a6.591,6.591,0,0,1-6.591-6.591V66.909H120.636Zm0-72.5H15.182V33.955a6.591,6.591,0,0,1,6.591-6.591h6.591v6.591a6.591,6.591,0,0,0,13.182,0V27.364H94.273v6.591a6.591,6.591,0,0,0,13.182,0V27.364h6.591a6.591,6.591,0,0,1,6.591,6.591ZM34.955,93.273a6.591,6.591,0,1,0-6.591-6.591A6.591,6.591,0,0,0,34.955,93.273Zm0,26.364a6.591,6.591,0,1,0-6.591-6.591A6.591,6.591,0,0,0,34.955,119.636Z" transform="translate(-2 -1)" fill="#fff"/>
</svg>
