<svg xmlns="http://www.w3.org/2000/svg" xmlns:xlink="http://www.w3.org/1999/xlink" width="237" height="172" viewBox="0 0 237 172">
  <defs>
    <clipPath id="clip-path">
      <rect id="Rectangle_1819" data-name="Rectangle 1819" width="237" height="172" transform="translate(6780 -1769)" fill="#fff" stroke="#707070" stroke-width="1"/>
    </clipPath>
  </defs>
  <g id="Mask_Group_45" data-name="Mask Group 45" transform="translate(-6780 1769)" clip-path="url(#clip-path)">
    <g id="Group_2508" data-name="Group 2508" transform="translate(6806.483 -1769)">
      <path id="Path_659" data-name="Path 659" d="M826.762,604.414s22.767,1.177,17.464,8.344-19.237-4.2-19.237-4.2Z" transform="translate(-680.186 -482.127)" fill="#ffb8b8"/>
      <path id="Path_660" data-name="Path 660" d="M629.78,313.448l4.634,1.159s2.7,8.11,4.634,15.447,5.793,29.35,5.793,29.35l29.94,20.983-3.571,7.988-39.885-15.719-8.882-34.877Z" transform="translate(-525.161 -259.427)" fill="#575a89"/>
      <path id="Path_661" data-name="Path 661" d="M436.181,291.607l-1.727,36.17,3.6,10.754L427.5,330.788Z" transform="translate(-327.201 -223.191)" opacity="0.2"/>
      <path id="Path_662" data-name="Path 662" d="M524.006,632.033s5.02,13.516,5.793,22.785,1.545,16.606,1.545,16.606H507.787l-4.634-6.951v6.951H475.733s-7.724-25.1-4.634-28.191,32.439-16.22,32.439-16.22Z" transform="translate(-408.767 -499.424)" fill="#2f2e41"/>
      <circle id="Ellipse_226" data-name="Ellipse 226" cx="14.675" cy="14.675" r="14.675" transform="translate(71.022 9.996)" fill="#ffb8b8"/>
      <path id="Path_663" data-name="Path 663" d="M521.549,214.688,520.39,231.68l14.675,19.7,7.338-18.537s-6.565-4.248-2.7-13.13Z" transform="translate(-447.051 -183.838)" fill="#ffb8b8"/>
      <path id="Path_664" data-name="Path 664" d="M488.826,352.727c0,3.477-9.655,8.883-9.655,8.883v1.931l-3.862,1.931-8.5-16.991L464.5,367.015s-16.993,2.705-22.4,0-8.111-1.544-15.834-4.247,3.09-39.005,3.09-39.005l-7.724-56L438.5,259.33l.889-.446,2.32-.427,3.557-.657,11.888,8.036.957,5.021.589,3.09,3.088-3.477,2.332-7.67,16.592,9.216-4.634,37.072S488.826,349.252,488.826,352.727Z" transform="translate(-371.463 -216.835)" fill="#575a89"/>
      <path id="Path_665" data-name="Path 665" d="M453.474,713.428s17.764,14.289,9.268,16.992-13.13-14.675-13.13-14.675Z" transform="translate(-392.879 -565.564)" fill="#ffb8b8"/>
      <path id="Path_666" data-name="Path 666" d="M387.7,301.052l-3.862-.772s-5.793,3.089-6.179,9.268-5.407,49.431-5.407,49.431l16.22,43.639,13.13-5.02-12.744-40.935,9.655-35.529Z" transform="translate(-333.667 -249.348)" fill="#575a89"/>
      <circle id="Ellipse_227" data-name="Ellipse 227" cx="1.408" cy="1.408" r="1.408" transform="translate(85.987 60.674)" fill="#2f2e41"/>
      <circle id="Ellipse_228" data-name="Ellipse 228" cx="1.408" cy="1.408" r="1.408" transform="translate(85.987 69.824)" fill="#2f2e41"/>
      <circle id="Ellipse_229" data-name="Ellipse 229" cx="1.408" cy="1.408" r="1.408" transform="translate(93.964 130.121)" fill="#2f2e41"/>
      <path id="Path_667" data-name="Path 667" d="M507.724,92.834l-2.713-1.086s5.672-6.245,13.564-5.7L516.356,83.6s5.426-2.172,10.358,3.53c2.593,3,5.593,6.52,7.463,10.489h2.905l-1.213,2.67,4.244,2.67-4.356-.48a14.92,14.92,0,0,1,.118,4.428,5.73,5.73,0,0,1-2.1,3.748h0s-3.364-6.964-3.364-8.05v2.715s-2.713-2.444-2.713-4.073l-1.48,1.9h-9.865l1.48-2.444-5.672.814,2.22-2.987L505.6,110.868S500.573,96.907,507.724,92.834Z" transform="translate(-434.418 -83.197)" fill="#2f2e41"/>
      <circle id="Ellipse_230" data-name="Ellipse 230" cx="23.462" cy="23.462" r="23.462" transform="translate(137.11 66.525)" fill="#3f3d56"/>
      <circle id="Ellipse_231" data-name="Ellipse 231" cx="20.177" cy="20.177" r="20.177" transform="translate(140.395 69.809)" opacity="0.1"/>
      <path id="Path_668" data-name="Path 668" d="M875.3,439.614v-2.937a6.82,6.82,0,0,1-3.916-1.279L872,433.45a6.26,6.26,0,0,0,3.686,1.25,2.823,2.823,0,0,0,3.046-2.849c0-1.6-1-2.588-2.892-3.46-2.611-1.163-4.223-2.5-4.223-5.03a4.572,4.572,0,0,1,3.865-4.681v-2.937h1.587v2.82a6.228,6.228,0,0,1,3.327,1.018l-.64,1.919a5.656,5.656,0,0,0-3.225-.989,2.457,2.457,0,0,0-2.713,2.5c0,1.512.947,2.268,3.174,3.315,2.636,1.221,3.967,2.733,3.967,5.321a4.866,4.866,0,0,1-4.044,4.943v3.024Z" transform="translate(-715.698 -337.721)" fill="#6c63ff"/>
      <path id="Path_669" data-name="Path 669" d="M250.005,500.992l9.384,29.312-7.508-30.5Z" transform="translate(-191.35 -382.54)" opacity="0.2"/>
      <path id="Path_670" data-name="Path 670" d="M231.27,309.68h-5.956a.98.98,0,0,1-.979-.979v-8.562a.98.98,0,0,1,.979-.979h5.956a.98.98,0,0,1,.979.979V308.7A.98.98,0,0,1,231.27,309.68Zm-5.956-10.051a.511.511,0,0,0-.51.51V308.7a.51.51,0,0,0,.51.51h5.956a.511.511,0,0,0,.51-.51v-8.562a.511.511,0,0,0-.51-.51Z" transform="translate(-220.456 -248.491)" fill="#3f3d56"/>
      <path id="Path_671" data-name="Path 671" d="M278.581,279.32H273.2a1.269,1.269,0,0,1-1.268-1.268V260.761a1.269,1.269,0,0,1,1.268-1.268h5.379a1.269,1.269,0,0,1,1.268,1.268v17.291A1.269,1.269,0,0,1,278.581,279.32ZM273.2,259.962a.8.8,0,0,0-.8.8v17.291a.8.8,0,0,0,.8.8h5.379a.8.8,0,0,0,.8-.8V260.761a.8.8,0,0,0-.8-.8Z" transform="translate(-256.888 -218.131)" fill="#3f3d56"/>
      <path id="Path_672" data-name="Path 672" d="M325.974,251.389H321.01a1.477,1.477,0,0,1-1.476-1.476V224.476A1.477,1.477,0,0,1,321.01,223h4.963a1.477,1.477,0,0,1,1.475,1.476v25.438A1.477,1.477,0,0,1,325.974,251.389Zm-4.963-27.92A1.007,1.007,0,0,0,320,224.476v25.438a1.007,1.007,0,0,0,1.006,1.006h4.963a1.007,1.007,0,0,0,1.006-1.006V224.476a1.007,1.007,0,0,0-1.006-1.006Z" transform="translate(-293.32 -190.2)" fill="#3f3d56"/>
      <rect id="Rectangle_1503" data-name="Rectangle 1503" width="4.467" height="7.259" transform="translate(5.603 52.299)" fill="#6c63ff"/>
      <rect id="Rectangle_1504" data-name="Rectangle 1504" width="4.467" height="16.473" transform="translate(16.77 43.086)" fill="#6c63ff"/>
      <rect id="Rectangle_1505" data-name="Rectangle 1505" width="4.467" height="25.034" transform="translate(27.938 34.524)" fill="#6c63ff"/>
      <path id="Path_673" data-name="Path 673" d="M828.24,124.143h-31.2a.235.235,0,0,1-.235-.235V92.235a.235.235,0,1,1,.469,0v31.439h30.97a.235.235,0,1,1,0,.469Z" transform="translate(-658.611 -89.935)" fill="#3f3d56"/>
      <path id="Path_674" data-name="Path 674" d="M245.105,236.3h-37.07a.235.235,0,0,1-.235-.235V199.235a.235.235,0,0,1,.469,0v36.6h36.835a.235.235,0,1,1,0,.469Z" transform="translate(-207.801 -171.83)" fill="#3f3d56"/>
      <path id="Path_675" data-name="Path 675" d="M821.075,182.148h-5.956a.98.98,0,0,1-.979-.979v-8.562a.98.98,0,0,1,.979-.979h5.956a.98.98,0,0,1,.979.979v8.562a.98.98,0,0,1-.979.979ZM815.118,172.1a.511.511,0,0,0-.51.51v8.562a.511.511,0,0,0,.51.51h5.956a.51.51,0,0,0,.51-.51v-8.562a.51.51,0,0,0-.51-.51Z" transform="translate(-671.882 -150.88)" fill="#3f3d56"/>
      <path id="Path_676" data-name="Path 676" d="M873.838,157.941h-5.482a1.218,1.218,0,0,1-1.216-1.216V141.216A1.218,1.218,0,0,1,868.355,140h5.482a1.217,1.217,0,0,1,1.216,1.216v15.508a1.218,1.218,0,0,1-1.216,1.216Zm-5.482-17.471a.748.748,0,0,0-.747.747v15.508a.748.748,0,0,0,.747.747h5.482a.748.748,0,0,0,.747-.747V141.216a.748.748,0,0,0-.747-.747Z" transform="translate(-712.447 -126.673)" fill="#3f3d56"/>
      <rect id="Rectangle_1506" data-name="Rectangle 1506" width="4.467" height="7.259" transform="translate(143.874 22.459)" fill="#6c63ff"/>
      <rect id="Rectangle_1507" data-name="Rectangle 1507" width="4.467" height="14.045" transform="translate(156.416 15.275)" fill="#6c63ff"/>
      <circle id="Ellipse_232" data-name="Ellipse 232" cx="2.112" cy="2.112" r="2.112" transform="translate(144.055 14.031)" fill="#6c63ff"/>
      <circle id="Ellipse_233" data-name="Ellipse 233" cx="2.112" cy="2.112" r="2.112" transform="translate(156.49 6.054)" fill="#6c63ff"/>
    </g>
  </g>
</svg>
