<svg xmlns="http://www.w3.org/2000/svg" width="236.576" height="171.706" viewBox="0 0 236.576 171.706"><defs><style>.a{fill:#ffb6b6;}.b{fill:#e6e6e6;}.c{fill:#ccc;}.d{fill:#2f2e41;}.e{fill:#ffb8b8;}.f{fill:#6c63ff;}.g{fill:#fff;}.h{fill:#e4e4e4;}.i{fill:#3f3d56;}</style></defs><g transform="translate(0 0)"><path class="a" d="M578.725,194.344l-23.209-2.861,1.272-20.348h21.938Z" transform="translate(-378.898 -116.725)"/><g transform="translate(208.078 86.734)"><path class="b" d="M887.415,468.932a1.868,1.868,0,0,1-1.713-1.13l-3.223-7.519,9.552.033,6.563-6.941,3.148,7.349a1.87,1.87,0,0,1-.955,2.435l-12.616,5.61a1.858,1.858,0,0,1-.756.162Z" transform="translate(-882.459 -453.183)"/><path class="c" d="M890.537,460.851q-.119,0-.239-.007l-7.675-.434-.208-.466.145-.065,15.964-7.109.208.466-4.884,6.035A4.27,4.27,0,0,1,890.537,460.851Z" transform="translate(-882.415 -452.77)"/></g><g transform="translate(144.641 4.45)"><path class="d" d="M813.387,214.716,790.726,215a1.606,1.606,0,0,1-1.6-1.6v-7.487a11.944,11.944,0,0,1,23.888,0l1.982,7.2a1.606,1.606,0,0,1-1.6,1.6Z" transform="translate(-755.346 -193.964)"/><path class="a" d="M892.32,432.05a3.479,3.479,0,0,1,.205-5.331L888.583,415l6.211,1.641,2.792,10.876a3.5,3.5,0,0,1-5.267,4.531Z" transform="translate(-823.185 -344.726)"/><path class="a" d="M805.847,664.822l-4.651-.754.7-18.3,6.865,1.113Z" transform="translate(-763.582 -502.124)"/><path class="a" d="M855.81,638.328l-4.207,2.123-11.143-16.17,6.209-3.133Z" transform="translate(-790.362 -485.331)"/><circle class="e" cx="8.271" cy="8.271" r="8.271" transform="translate(37.349 4.415)"/><path class="d" d="M798.378,477.589l-19.371-49.4c-6.933-18.938-.739-31.99-.675-32.119l.032-.064.066-.024c.8,3.1,18.832,2.885,22.965-1.884a20.7,20.7,0,0,1,6.311,12.5,44.979,44.979,0,0,1-1.6,18.214l-7.63,25.867,9.44,21.267Z" transform="translate(-746.208 -330.471)"/><path class="d" d="M802.59,560.322l-6.995,35.468,9.315,1.757,5.861-30.7Z" transform="translate(-759.761 -443.844)"/><path class="f" d="M783.779,300.228c1.49.4,16.221,6.468,23.209.318l5.484-27.077L805.9,271.4l-2.293-2.788a2.6,2.6,0,0,0-2.05-.951l-8.151.109a2.616,2.616,0,0,0-1.908.867l-2.611,2.912-5.9,1.372Z" transform="translate(-751.166 -244.228)"/><path class="f" d="M863.4,287.48l1.786-2.378s3.272.86,4.934,5.548,8.472,42.143,8.472,42.143l-7.334,3.405-9.931-33.1Z" transform="translate(-804.594 -256.126)"/><path class="a" d="M682.925,405.632a3.479,3.479,0,0,1,4.519-2.836l7.454-9.864,2.147,6.055-7.408,8.438a3.5,3.5,0,0,1-6.712-1.794Z" transform="translate(-682.888 -329.673)"/><path class="f" d="M727.738,286.273l-2.47-2.171s-2.587.653-4.249,5.341-22.878,36.117-22.878,36.117l7.334,3.405,24.337-27.078Z" transform="translate(-693.291 -255.444)"/><path class="d" d="M815.25,209.011H803.689a.892.892,0,0,1-.885-.781l-.15-1.2a.535.535,0,0,0-1.015-.159l-.758,1.623a.9.9,0,0,1-.808.514h-1.756a.89.89,0,0,1-.892-.889.873.873,0,0,1,0-.087l.692-7.233a.9.9,0,0,1,.509-.726,18.079,18.079,0,0,1,15.958.01.893.893,0,0,1,.5.684l1.037,7.223a.89.89,0,0,1-.882,1.017Z" transform="translate(-761.01 -196.87)"/></g><path class="b" d="M262.857,197.963a1.518,1.518,0,0,0-1.52,1.513l-.374,162.286a1.518,1.518,0,0,0,1.513,1.52l130.739.3a1.518,1.518,0,0,0,1.52-1.513l.374-162.286a1.518,1.518,0,0,0-1.513-1.52Z" transform="translate(-250.467 -192.241)"/><path class="g" d="M278.143,213.264a1.518,1.518,0,0,0-1.52,1.513l-.35,152.579a1.519,1.519,0,0,0,1.513,1.52l121.032.278a1.518,1.518,0,0,0,1.52-1.513l.35-152.579a1.518,1.518,0,0,0-1.513-1.52Z" transform="translate(-260.909 -202.678)"/><path class="b" d="M416.074,411.458l-89.181-.205a2.275,2.275,0,1,1,.01-4.55l89.181.206a2.275,2.275,0,1,1-.01,4.55Z" transform="translate(-293.887 -334.615)"/><path class="b" d="M484.824,278.276l-59.166-.136c-.834,0-1.507-1.022-1.5-2.279s.681-2.274,1.515-2.272l59.166.136c.834,0,1.507,1.022,1.5,2.279S485.658,278.28,484.824,278.276Z" transform="translate(-361.773 -243.824)"/><path class="b" d="M484.729,319.3l-59.166-.136c-.834,0-1.507-1.022-1.5-2.279s.681-2.274,1.515-2.272l59.166.136c.834,0,1.507,1.022,1.5,2.279S485.563,319.3,484.729,319.3Z" transform="translate(-361.709 -271.806)"/><path class="b" d="M415.964,457.731l-89.181-.205a2.275,2.275,0,1,1,.01-4.55l89.181.205a2.275,2.275,0,1,1,.042,4.55Z" transform="translate(-293.812 -366.177)"/><path class="b" d="M415.864,504l-89.181-.205a2.275,2.275,0,1,1,.01-4.55l89.181.206a2.275,2.275,0,1,1,.043,4.55Z" transform="translate(-293.744 -397.737)"/><path class="b" d="M415.755,550.277l-89.181-.205a2.275,2.275,0,1,1,.01-4.55l89.181.206a2.275,2.275,0,1,1,.043,4.55Z" transform="translate(-293.67 -429.299)"/><path class="b" d="M371.773,594.55l-45.306-.205a2.275,2.275,0,1,1,.01-4.55l45.306.206a2.275,2.275,0,0,1,.043,4.55Z" transform="translate(-293.597 -459.496)"/><path class="b" d="M371.667,640.824l-45.306-.205a2.275,2.275,0,1,1,.01-4.55l45.306.206a2.275,2.275,0,1,1,.043,4.55h-.053Z" transform="translate(-293.524 -491.058)"/><path class="b" d="M420.361,421.217" transform="translate(-359.186 -344.515)"/><path class="f" d="M527.189,197.051V186.226a6.124,6.124,0,0,0-12.246-.269h1.348a4.783,4.783,0,0,1,4.772-4.6h.07a4.786,4.786,0,0,1,4.708,4.856v10.922a3.208,3.208,0,0,1-3.2,3.165H522.6a3.21,3.21,0,0,1-3.165-3.251l.007-10.752a1.614,1.614,0,1,1,3.228-.011v3.124a.674.674,0,1,0,1.348,0v-3.135a2.961,2.961,0,0,0-5.922.01l-.007,10.755a4.557,4.557,0,0,0,4.5,4.606h.056a4.558,4.558,0,0,0,4.55-4.5C527.189,197.116,527.189,197.081,527.189,197.051Z" transform="translate(-423.698 -179.967)"/><path class="h" d="M546.937,588.578a14.974,14.974,0,0,1-.944,5.25,14.57,14.57,0,0,1-1.043,2.224,15.043,15.043,0,0,1-26.1,0q-.2-.347-.379-.7a15.039,15.039,0,1,1,28.469-6.771Z" transform="translate(-425.003 -448.408)"/><circle class="f" cx="2.875" cy="2.875" r="2.875" transform="translate(104.802 136.958)"/><path class="i" d="M521.922,619.711c1.267-1.369,2.96-3.542,4.548-1.972.8.741,2.044,2.576,3.239,1.376l9.325-9.325a1.851,1.851,0,0,1,2.647.047l7.766,8.353a14.575,14.575,0,0,1-1.043,2.224H522.3Z" transform="translate(-428.458 -472.771)"/><path class="h" d="M334.937,267.578a14.972,14.972,0,0,1-.944,5.25,14.561,14.561,0,0,1-1.043,2.224,15.043,15.043,0,0,1-26.1,0q-.2-.347-.379-.7a15.039,15.039,0,1,1,28.469-6.771Z" transform="translate(-280.406 -229.465)"/><circle class="f" cx="2.875" cy="2.875" r="2.875" transform="translate(37.4 34.901)"/><path class="i" d="M309.922,298.711c1.267-1.369,2.96-3.542,4.548-1.972.8.741,2.044,2.576,3.239,1.376l9.325-9.325a1.851,1.851,0,0,1,2.647.047l7.766,8.353a14.565,14.565,0,0,1-1.043,2.224H310.3Z" transform="translate(-283.86 -253.828)"/><circle class="f" cx="1.59" cy="1.59" r="1.59" transform="translate(96.816 15.94)"/><path class="d" d="M791.635,696.357H788.61l-.54-2.857-1.383,2.857h-8.025a1.8,1.8,0,0,1-1.025-3.288l6.408-4.426v-2.888l6.74.4Z" transform="translate(-602.34 -524.947)"/><path class="d" d="M878.316,679.436l-2.542,1.641-2-2.107.388,3.15-6.742,4.353a1.8,1.8,0,0,1-2.645-2.206l2.983-7.194-1.567-2.426,5.881-3.318Z" transform="translate(-662.21 -515.107)"/><rect class="c" width="236.576" height="0.636" transform="translate(0 171.07)"/></g></svg>