<svg xmlns="http://www.w3.org/2000/svg" width="25.201" height="17.56" viewBox="0 0 25.201 17.56"><defs><style>.a{fill-rule:evenodd;}</style></defs><path class="a" d="M21.16,5.1a5.04,5.04,0,1,1-5.04,5.04A5.034,5.034,0,0,1,21.16,5.1Zm-.007,1.631a.42.42,0,0,0-.413.427V9.714H18.178a.42.42,0,1,0,0,.84H20.74v2.563a.42.42,0,1,0,.84,0V10.554h2.563a.42.42,0,1,0,0-.84H21.581V7.153A.42.42,0,0,0,21.154,6.727ZM15.759,7.814a5.876,5.876,0,0,0,8.651,7.217,4.194,4.194,0,0,1-1.224,7.462l-.03.01a2.213,2.213,0,0,1-.768.153H4.486a3.531,3.531,0,0,1,0-7.061,3.4,3.4,0,0,1,1.178.213.42.42,0,0,0,.564-.356,4.116,4.116,0,0,1,4.984-3.711.42.42,0,0,0,.489-.279,5.454,5.454,0,0,1,4.059-3.647Z" transform="translate(-1 -5.096)"/></svg>