<svg xmlns="http://www.w3.org/2000/svg" width="114.491" height="80.079" viewBox="0 0 114.491 80.079"><defs><style>.a{fill:#3f3d56;}.b{fill:#6c63ff;}.c{fill:#ffb8b8;}.d{fill:#2f2e41;}.e{fill:none;stroke:lime;stroke-miterlimit:10;}.f{fill:#575a89;}.g{fill:#d0cde1;}</style></defs><g transform="translate(0 0)"><path class="a" d="M188.93,614.3l-.142-.053a8.277,8.277,0,0,1-5.323-9.872l.034-.148.142.053a8.277,8.277,0,0,1,5.323,9.872Zm-4.5-4.076a9.274,9.274,0,0,0,4.3,3.715,7.982,7.982,0,0,0-5.042-9.351,9.285,9.285,0,0,0,.739,5.636Z" transform="translate(-172.002 -547.179)"/><path class="b" d="M154.528,643.488a9.46,9.46,0,0,1,3.619,4.694,8.145,8.145,0,0,1-9.461-5.692A9.46,9.46,0,0,1,154.528,643.488Z" transform="translate(-141.22 -581.128)"/><ellipse class="a" cx="9.52" cy="2.115" rx="9.52" ry="2.115" transform="translate(84.882 36.095)"/><rect class="a" width="27.007" height="0.264" transform="matrix(0.367, -0.93, 0.93, 0.367, 74.047, 66.984)"/><rect class="a" width="0.264" height="27.007" transform="translate(104.329 41.961) rotate(-21.541)"/><rect class="a" width="0.264" height="25.121" transform="translate(94.138 41.913)"/><rect class="a" width="0.264" height="11.234" transform="matrix(0.447, -0.894, 0.894, 0.447, 82.443, 51.154)"/><rect class="a" width="11.234" height="0.264" transform="matrix(0.894, -0.447, 0.447, 0.894, 95.93, 55.942)"/><path class="c" d="M777.1,277.993s-3.966-4.1-5.024-1.587,3.967,3.834,3.967,3.834Z" transform="translate(-695.721 -254.788)"/><path class="d" d="M798.606,347.945l-5.156,7.4-5.421,7.536L786.442,384.7l5.421.661s-.793-5.95.661-9.52,1.454-10.048,1.454-10.048l9.387-11.371,5.289,9.123,5.685,21.816,4.76-.4s-1.719-10.048-1.454-11.106-2.776-9.916-2.776-9.916l-2.38-17.32S801.647,345.036,798.606,347.945Z" transform="translate(-708.633 -317.601)"/><circle class="c" cx="3.8" cy="3.8" r="3.8" transform="translate(88.418 3.204)"/><path class="c" d="M910.7,161.908l2.777,2.909.793,4.5-7.007,1.19.529-4.1s-.132-1.983-.661-2.38S910.7,161.908,910.7,161.908Z" transform="translate(-815.969 -153.644)"/><path class="e" d="M871.55,236.229" transform="translate(-784.354 -219.768)"/><path class="f" d="M886.184,190.4l.644-.727,2.132,1.917,3.57-3.305,5.421,18.246a9.734,9.734,0,0,0-6.743.4,16.994,16.994,0,0,1-7.669,1.19l.132-14.808Z" transform="translate(-795.022 -177.107)"/><path class="g" d="M859.952,201.14l4.43-4.053s1.52,2.2.859,6.433-1.19,12.561-3.57,14.808-3.305,3.041-3.305,3.041l2.38-9.52S858.894,202.2,859.952,201.14Z" transform="translate(-772.623 -184.943)"/><path class="g" d="M953.553,173.719s7.879-.787,8.011.139-.793,11.5-.793,11.5,8.2,10.974,4.76,13.089c-1.6.987-2.988-1.18-4.958-3.9-2.254-3.113-5.011-7.019-5.223-8.925C954.953,182.055,953.553,173.719,953.553,173.719Z" transform="translate(-857.312 -163.875)"/><path class="g" d="M809.156,267.395l-.661,5.156-5.818-2.512-1.851,3.834,9.52,3.57S812.065,268.32,809.156,267.395Z" transform="translate(-721.431 -247.496)"/><path class="d" d="M717.657,689.342l-3.834,6.214s-7.272,3.967-4.76,5.024,8.594-1.19,9.255-2.512.925-1.587,1.19-1.322,3.57-.793,3.7-1.19,0-4.892-1.19-5.421A20.4,20.4,0,0,0,717.657,689.342Z" transform="translate(-639.32 -622.903)"/><path class="d" d="M1040.57,693.2l.793,4.892.926,3.438s.661,5.024,3.834,4.628a2.562,2.562,0,0,0,2.314-2.4,4.8,4.8,0,0,0-.53-2.972l-1.784-3.358-1.587-4.5Z" transform="translate(-934.731 -626.102)"/><path class="d" d="M878.307,104.165a1.861,1.861,0,0,1-.464-1.256,3.977,3.977,0,0,0-.075-1.187,11.712,11.712,0,0,1,.4-1.8c.239-.662.037-.893,1.063-1.254s.373-1.669,3.4-.627a.827.827,0,0,0,.9.184c.558-.2.895.563.895.563s.348-.286.544.011,1.141-.38,1.487,1.781a6.663,6.663,0,0,1-.843,4.088s-.167-3.458-2.131-3.521-4.185-.807-4.46.65A10.629,10.629,0,0,1,878.307,104.165Z" transform="translate(-789.886 -96.467)"/><path class="c" d="M982.252,337.017s-4.77,3.128-2.5,4.638,4.51-3.177,4.51-3.177Z" transform="translate(-880.076 -309.439)"/><path class="g" d="M995.394,176.159a1.041,1.041,0,0,1,1.587.661c.4,1.322,4.5,11.5,4.5,11.5l-5.156,7.933-3.7-2.644,4.5-5.289-3.04-3.7Z" transform="translate(-892.067 -166.176)"/><path class="a" d="M691.718,150.2h-.138v-3.792a2.194,2.194,0,0,0-2.195-2.194h-8.033a2.194,2.194,0,0,0-2.194,2.195v20.8a2.195,2.195,0,0,0,2.195,2.194h8.033a2.194,2.194,0,0,0,2.195-2.194V152.9h.138Z" transform="translate(-613.182 -137.901)"/><path class="b" d="M693.887,149.86h-1.049a.779.779,0,0,1-.721,1.073h-4.6a.779.779,0,0,1-.721-1.073h-.979a1.639,1.639,0,0,0-1.639,1.639V172.27a1.639,1.639,0,0,0,1.639,1.639h8.072a1.639,1.639,0,0,0,1.639-1.639V151.5A1.639,1.639,0,0,0,693.887,149.86Z" transform="translate(-617.648 -142.925)"/><path class="a" d="M626.571,154.754l1.724,2.987,1.725,2.987h-6.9l1.724-2.987Z" transform="translate(-554.393 -137.684)"/><path class="g" d="M641.7,174.36l.782,1.355.782,1.355h-3.129l.782-1.355Z" transform="translate(-569.528 -155.128)"/><path class="g" d="M641.7,134.413l.782,1.355.782,1.355h-3.129l.782-1.355Z" transform="translate(-569.528 -119.587)"/><path class="a" d="M165.192,250.708l11.376,19.7,11.376,19.7H142.439l11.376-19.7Z" transform="translate(-126.728 -223.055)"/><path class="g" d="M264.981,380.04l5.161,8.939,5.161,8.939H254.66l5.161-8.939Z" transform="translate(-226.571 -338.122)"/><path class="g" d="M264.981,116.52l5.161,8.938L275.3,134.4H254.66l5.161-8.939Z" transform="translate(-226.571 -103.668)"/><rect class="a" width="74.173" height="0.264" transform="translate(0 66.902)"/><path class="a" d="M268.1,215.714a7.984,7.984,0,0,1-1.257-2.26,7.992,7.992,0,0,1-1.258,2.26l1.125-.407v5.948h.264v-5.948Z" transform="translate(-245.228 -199.504)"/><path class="a" d="M597.149,394.921a7.984,7.984,0,0,1-1.257-2.26,7.991,7.991,0,0,1-1.258,2.26l1.125-.407v5.948h.264v-5.948Z" transform="translate(-537.981 -358.945)"/><path class="a" d="M494.06,89.25a7.985,7.985,0,0,1-1.257-2.26,7.992,7.992,0,0,1-1.258,2.26l1.125-.407V94.79h.264V88.842Z" transform="translate(-446.262 -86.989)"/></g></svg>