<svg xmlns="http://www.w3.org/2000/svg" width="118.949" height="88.795" viewBox="0 0 118.949 88.795"><defs><style>.a{fill:#f2f2f2;}.b{fill:#3f3d56;}.c{fill:#d0cde1;}.d{fill:#a0616a;}.e{opacity:0.1;}.f{fill:#6c63ff;}.g{opacity:0.2;}.h{fill:#2f2e41;}</style></defs><g transform="translate(0)"><rect class="a" width="59.84" height="47.249" transform="translate(38.43 30.652)"/><path class="b" d="M422.28,341.239H362.19v-47.5h60.09Zm-59.84-.249H422.03v-47H362.439Z" transform="translate(-332.362 -268.824)"/><rect class="b" width="69.329" height="0.294" transform="translate(2.686 87.039)"/><path class="c" d="M413.008,329.922l-.035-24.684,27.943,12.3Z" transform="translate(-361.488 -267.185)"/><path class="d" d="M490.666,393.069s2.633-2.958,3.179-1.831-2.675,2.841-2.675,2.841Z" transform="translate(-444.822 -353.942)"/><path class="c" d="M389.932,404.967a3.9,3.9,0,0,0-1.51.953,4.683,4.683,0,0,1-1.467,1.07l-.1.059-1.065.635-1.4.83-4.416,2.63-5.828,2.334c-.045-.814-.089-1.628-.13-2.4-.012-.231-.015-.46-.01-.689.074-.022.148-.042.224-.059a6.951,6.951,0,0,0,2.457-.9l3.371-2.033s2.647-1.687,4.326-2.478c.236-.112.453-.206.64-.274l3.979-1.461.029.056.608,1.178Z" transform="translate(-342.71 -364.62)"/><path class="e" d="M389.932,404.967a3.9,3.9,0,0,0-1.51.953,4.683,4.683,0,0,1-1.467,1.07l-.1.059-1.065.635-1.4.83-4.416,2.63-5.828,2.334c-.045-.814-.089-1.628-.13-2.4-.012-.231-.015-.46-.01-.689.074-.022.148-.042.224-.059a6.951,6.951,0,0,0,2.457-.9l3.371-2.033s2.647-1.687,4.326-2.478c.236-.112.453-.206.64-.274l3.979-1.461.029.056.608,1.178Z" transform="translate(-342.71 -364.62)"/><path class="f" d="M371.149,329.711l-.035-24.684,27.943,12.3Z" transform="translate(-324.848 -267)"/><path class="g" d="M397.5,397.4l-26.125,11.59,0,1.577,27.908-12.382Z" transform="translate(-325.077 -347.861)"/><path class="d" d="M308.754,665.493v2.618h1.995l-.249-2.743Z" transform="translate(-270.262 -582.418)"/><path class="d" d="M242.377,665.368l-.623,2.992,2.493.125v-3.117Z" transform="translate(-211.615 -582.418)"/><path class="h" d="M364.609,569.17s-.623-.249-.748,1.995-.249,9.973-.249,9.973-1.247,6.857-.748,8.851a15.355,15.355,0,0,1,.5,3.366h2.244l.125-1.247.125-3.366a13.885,13.885,0,0,0,.873-5.984l2.992-9.1,1.5,9.724a18.12,18.12,0,0,0-.5,4.862c.125,2.493.125,5.735.125,5.735l2.493-.249,1.995-11.719s1.122-11.719,0-12.342S364.609,569.17,364.609,569.17Z" transform="translate(-332.849 -509.907)"/><path class="h" d="M418.8,765.488s-1.122-1.5-1.621-.374-1.621,2.618-.748,3.366,1.995,1,2.369.748,4.239-2.244,4.239-2.244.748-2.119-.748-2.244a4.207,4.207,0,0,1-1.995-.5Z" transform="translate(-379.556 -680.668)"/><path class="h" d="M349.46,770.622s0-1.247-.5-.873-.873,1.995-.873,1.995-2.992,2.369-.125,2.369,4.737.5,4.488-.623-.623-2.992-.623-2.992A1.345,1.345,0,0,0,349.46,770.622Z" transform="translate(-318.822 -685.429)"/><circle class="d" cx="3.117" cy="3.117" r="3.117" transform="translate(35.375 31.462)"/><path class="d" d="M402.964,379.741s-.5,3.615-1.247,4.114,4.987.623,4.987.623-.374-2.867,0-3.615Z" transform="translate(-366.903 -344.103)"/><path class="d" d="M482.812,578.241s1.87,3.491.623,3.615-1.745-3.491-1.745-3.491Z" transform="translate(-436.965 -517.856)"/><path class="h" d="M402.26,348.484a2.325,2.325,0,0,0,2.828-.629c.419-.548.662-1.346,1.331-1.516.437-.111.94.1,1.33-.127.727-.422.217-1.758.892-2.258a1.159,1.159,0,0,1-1.14-1.078c-.017.233-.324.338-.548.27a4.138,4.138,0,0,1-.609-.346,2.211,2.211,0,0,0-1.2-.113,4.822,4.822,0,0,0-2.927.941,3.112,3.112,0,0,0-.817,2.712,4.437,4.437,0,0,0,.909,2.122Z" transform="translate(-366.647 -311.642)"/><path class="c" d="M385.783,407.485l-.017.125-.254,1.876-1.043,7.687-.056.41s.123.3.278.779a12.008,12.008,0,0,1,.63,3.356,5.593,5.593,0,0,1-.035.727c-.187,1.589-.234,3.179-.246,3.875,0,.232,0,.364,0,.364l-11.345-.374a5.229,5.229,0,0,0,.188-.489,8.954,8.954,0,0,0,.435-3.75c-.111-1.055-.284-3.928-.441-6.791-.045-.814-.089-1.628-.13-2.4-.012-.231-.015-.46-.01-.689a9.152,9.152,0,0,1,3.448-6.951s.229.01.591.031a24.71,24.71,0,0,1,4.355.521.921.921,0,0,1,.1.044c.372.183,1.148.546,1.881.883C384.977,407.118,385.783,407.485,385.783,407.485Z" transform="translate(-342.429 -366.424)"/><path class="c" d="M456.69,424.241h1.745a5.2,5.2,0,0,1,1.247,3.491,6.948,6.948,0,0,0,0,2.618l.748,3.865a41.253,41.253,0,0,1,.873,5.61v4.239l-1.995.249a3.89,3.89,0,0,0-.374-1.745,4.7,4.7,0,0,1-.5-1.745l-1.5-7.979Z" transform="translate(-415.081 -383.055)"/><rect class="f" width="3.854" height="3.72" transform="matrix(0.933, -0.361, 0.361, 0.933, 12.524, 40.337)"/><path class="b" d="M221.294,406.275l-3.784,1.463-1.413-3.653,3.784-1.463Zm-3.665,1.208,3.405-1.317-1.271-3.287-3.405,1.317Z" transform="translate(-204.483 -364.131)"/><rect class="f" width="3.854" height="3.72" transform="translate(107.84 11.529) rotate(71.027)"/><path class="b" d="M962.915,184.293l-1.319-3.836,3.7-1.273,1.319,3.836Zm-1.068-3.708,1.187,3.453,3.333-1.146-1.187-3.453Z" transform="translate(-857.042 -168.548)"/><path class="b" d="M163.3,714.809l-.158-.059a9.215,9.215,0,0,1-5.926-10.99l.037-.165.158.059a9.214,9.214,0,0,1,5.926,10.99Zm-5.007-4.537a10.324,10.324,0,0,0,4.79,4.136A8.886,8.886,0,0,0,157.469,704,10.336,10.336,0,0,0,158.292,710.272Z" transform="translate(-152.765 -627.583)"/><path class="f" d="M129.441,741.225a10.532,10.532,0,0,1,4.029,5.226,9.068,9.068,0,0,1-10.533-6.337A10.532,10.532,0,0,1,129.441,741.225Z" transform="translate(-122.937 -659.449)"/><rect class="b" width="116.315" height="0.249" transform="translate(2.634 3.124)"/><circle class="b" cx="1.13" cy="1.13" r="1.13" transform="translate(3.881 0)"/><circle class="b" cx="1.13" cy="1.13" r="1.13" transform="translate(7.364 0)"/><circle class="b" cx="1.13" cy="1.13" r="1.13" transform="translate(10.847 0)"/><rect class="b" width="26.604" height="0.299" transform="translate(45.813 11.651)"/><rect class="b" width="26.604" height="0.299" transform="translate(45.813 13.743)"/><rect class="b" width="26.604" height="0.299" transform="translate(45.813 15.836)"/></g></svg>