<svg xmlns="http://www.w3.org/2000/svg" xmlns:xlink="http://www.w3.org/1999/xlink" width="237" height="172" viewBox="0 0 237 172">
  <defs>
    <clipPath id="clip-path">
      <rect id="Rectangle_1828" data-name="Rectangle 1828" width="237" height="172" transform="translate(6780 -1769)" fill="#fff" stroke="#707070" stroke-width="1"/>
    </clipPath>
  </defs>
  <g id="Mask_Group_48" data-name="Mask Group 48" transform="translate(-6780 1769)" clip-path="url(#clip-path)">
    <g id="Group_2511" data-name="Group 2511" transform="translate(6789.002 -1764.74)">
      <rect id="Rectangle_1582" data-name="Rectangle 1582" width="110.172" height="86.99" transform="translate(70.752 56.433)" fill="#f2f2f2"/>
      <path id="Path_988" data-name="Path 988" d="M472.821,381.19H362.19V293.741H472.821Zm-110.172-.459H472.362V294.2H362.649Z" transform="translate(-307.275 -247.866)" fill="#3f3d56"/>
      <rect id="Rectangle_1583" data-name="Rectangle 1583" width="127.64" height="0.542" transform="translate(4.945 160.246)" fill="#3f3d56"/>
      <path id="Path_989" data-name="Path 989" d="M413.037,350.684l-.065-45.446,51.446,22.65Z" transform="translate(-318.185 -235.178)" fill="#d0cde1"/>
      <path id="Path_990" data-name="Path 990" d="M490.666,394.825s4.847-5.446,5.853-3.371-4.926,5.231-4.926,5.231Z" transform="translate(-406.263 -322.788)" fill="#a0616a"/>
      <path id="Path_991" data-name="Path 991" d="M403.323,406.47s-2.155.792-2.78,1.754a8.622,8.622,0,0,1-2.7,1.969l-.181.108-1.96,1.168L393.132,413,385,417.841l-10.73,4.3c-.083-1.5-.163-3-.239-4.416-.023-.425-.028-.847-.018-1.269.135-.041.273-.078.413-.108a12.8,12.8,0,0,0,4.524-1.662l6.206-3.744s4.873-3.105,7.965-4.563c.434-.207.833-.379,1.177-.505l7.326-2.69.053.1,1.12,2.169Z" transform="translate(-316.383 -332.187)" fill="#d0cde1"/>
      <path id="Path_992" data-name="Path 992" d="M403.323,406.47s-2.155.792-2.78,1.754a8.622,8.622,0,0,1-2.7,1.969l-.181.108-1.96,1.168L393.132,413,385,417.841l-10.73,4.3c-.083-1.5-.163-3-.239-4.416-.023-.425-.028-.847-.018-1.269.135-.041.273-.078.413-.108a12.8,12.8,0,0,0,4.524-1.662l6.206-3.744s4.873-3.105,7.965-4.563c.434-.207.833-.379,1.177-.505l7.326-2.69.053.1,1.12,2.169Z" transform="translate(-316.383 -332.187)" opacity="0.1"/>
      <path id="Path_993" data-name="Path 993" d="M371.178,350.473l-.064-45.446,51.446,22.65Z" transform="translate(-285.934 -235.016)" fill="#6c63ff"/>
      <path id="Path_994" data-name="Path 994" d="M419.474,397.4l-48.1,21.339,0,2.9,51.381-22.8Z" transform="translate(-286.136 -306.19)" opacity="0.2"/>
      <path id="Path_995" data-name="Path 995" d="M308.754,665.6v4.82h3.672l-.459-5.05Z" transform="translate(-237.887 -512.65)" fill="#a0616a"/>
      <path id="Path_996" data-name="Path 996" d="M242.9,665.368l-1.148,5.509,4.59.229v-5.738Z" transform="translate(-186.265 -512.65)" fill="#a0616a"/>
      <path id="Path_997" data-name="Path 997" d="M366.176,569.178s-1.148-.459-1.377,3.672-.459,18.362-.459,18.362-2.3,12.624-1.377,16.3a28.271,28.271,0,0,1,.918,6.2h4.131l.23-2.3.23-6.2s2.3-5.738,1.607-11.017l5.509-16.755,2.754,17.9a33.362,33.362,0,0,0-.918,8.952c.23,4.59.23,10.558.23,10.558l4.59-.459,3.672-21.575s2.066-21.575,0-22.723S366.176,569.178,366.176,569.178Z" transform="translate(-307.703 -460.07)" fill="#2f2e41"/>
      <path id="Path_998" data-name="Path 998" d="M421.059,766.536s-2.066-2.754-2.984-.689-2.984,4.82-1.377,6.2,3.672,1.836,4.361,1.377,7.8-4.132,7.8-4.132,1.377-3.9-1.377-4.131-3.672-.918-3.672-.918Z" transform="translate(-348.815 -610.375)" fill="#2f2e41"/>
      <path id="Path_999" data-name="Path 999" d="M351.763,771.415s0-2.3-.918-1.607-1.607,3.672-1.607,3.672-5.509,4.361-.23,4.361,8.722.918,8.263-1.148-1.148-5.508-1.148-5.508S353.829,768.2,351.763,771.415Z" transform="translate(-295.357 -614.566)" fill="#2f2e41"/>
      <circle id="Ellipse_247" data-name="Ellipse 247" cx="5.738" cy="5.738" r="5.738" transform="translate(65.129 57.925)" fill="#a0616a"/>
      <path id="Path_1000" data-name="Path 1000" d="M404.069,379.741s-.918,6.656-2.3,7.574,9.181,1.148,9.181,1.148-.689-5.279,0-6.656Z" transform="translate(-337.678 -314.127)" fill="#a0616a"/>
      <path id="Path_1001" data-name="Path 1001" d="M483.756,578.241s3.443,6.427,1.148,6.656-3.213-6.427-3.213-6.427Z" transform="translate(-399.347 -467.067)" fill="#a0616a"/>
      <path id="Path_1002" data-name="Path 1002" d="M403.019,353.385a4.281,4.281,0,0,0,5.206-1.157c.772-1.009,1.22-2.478,2.451-2.792.8-.2,1.731.182,2.448-.234,1.339-.776.4-3.236,1.642-4.158a2.134,2.134,0,0,1-2.1-1.984c-.032.43-.6.622-1.009.5a7.618,7.618,0,0,1-1.12-.636,4.071,4.071,0,0,0-2.217-.207c-1.915.178-3.982.421-5.388,1.733a5.73,5.73,0,0,0-1.5,4.992,8.169,8.169,0,0,0,1.674,3.906Z" transform="translate(-337.453 -285.555)" fill="#2f2e41"/>
      <path id="Path_1003" data-name="Path 1003" d="M395.954,409.372l-.032.23-.468,3.454-1.921,14.152-.1.755s.227.553.512,1.435a22.106,22.106,0,0,1,1.159,6.179,10.284,10.284,0,0,1-.064,1.338c-.344,2.926-.432,5.853-.452,7.134-.007.427-.007.67-.007.67l-20.887-.689a9.626,9.626,0,0,0,.347-.9,16.486,16.486,0,0,0,.8-6.9c-.2-1.942-.523-7.232-.812-12.5-.083-1.5-.163-3-.239-4.416-.023-.425-.028-.847-.018-1.269a16.85,16.85,0,0,1,6.349-12.8s.422.018,1.088.057c2.093.122,6.6.438,8.017.959a1.7,1.7,0,0,1,.19.08c.684.337,2.114,1.005,3.464,1.625C394.471,408.7,395.954,409.372,395.954,409.372Z" transform="translate(-316.136 -333.774)" fill="#d0cde1"/>
      <path id="Path_1004" data-name="Path 1004" d="M456.69,424.241H459.9s2.754,3.213,2.3,6.427a12.8,12.8,0,0,0,0,4.82l1.377,7.115s1.607,7.345,1.607,10.329v7.8l-3.672.459s0-2.3-.689-3.213a8.643,8.643,0,0,1-.918-3.213l-2.754-14.69Z" transform="translate(-380.085 -348.413)" fill="#d0cde1"/>
      <rect id="Rectangle_1584" data-name="Rectangle 1584" width="7.095" height="6.85" transform="matrix(0.933, -0.361, 0.361, 0.933, 23.058, 74.265)" fill="#6c63ff"/>
      <path id="Path_1005" data-name="Path 1005" d="M225.665,409.347l-6.966,2.694-2.6-6.725,6.966-2.694Zm-6.748,2.223,6.269-2.425-2.341-6.052-6.269,2.425Z" transform="translate(-194.715 -331.757)" fill="#3f3d56"/>
      <rect id="Rectangle_1585" data-name="Rectangle 1585" width="7.095" height="6.85" transform="translate(198.543 21.226) rotate(71.027)" fill="#6c63ff"/>
      <path id="Path_1006" data-name="Path 1006" d="M964.024,188.59l-2.428-7.063,6.818-2.344,2.428,7.063Zm-1.966-6.827,2.185,6.357,6.136-2.11-2.185-6.357Z" transform="translate(-769.103 -159.602)" fill="#3f3d56"/>
      <path id="Path_1007" data-name="Path 1007" d="M168.586,724.241l-.291-.109c-.064-.024-6.425-2.461-9.4-7.987s-1.521-12.18-1.506-12.247l.069-.3.291.109c.064.024,6.425,2.461,9.4,7.987s1.521,12.18,1.506,12.246Zm-9.218-8.354c2.519,4.672,7.546,7.067,8.82,7.614.242-1.365,1-6.885-1.516-11.553s-7.545-7.066-8.82-7.614C157.61,705.7,156.85,711.22,159.367,715.888Z" transform="translate(-149.192 -563.649)" fill="#3f3d56"/>
      <path id="Path_1008" data-name="Path 1008" d="M134.912,742.255c5.355,3.222,7.417,9.621,7.417,9.621s-6.62,1.176-11.975-2.046-7.417-9.621-7.417-9.621S129.557,739.033,134.912,742.255Z" transform="translate(-122.937 -591.698)" fill="#6c63ff"/>
      <rect id="Rectangle_1586" data-name="Rectangle 1586" width="214.146" height="0.459" transform="translate(4.85 5.752)" fill="#3f3d56"/>
      <circle id="Ellipse_248" data-name="Ellipse 248" cx="2.08" cy="2.08" r="2.08" transform="translate(7.145 0)" fill="#3f3d56"/>
      <circle id="Ellipse_249" data-name="Ellipse 249" cx="2.08" cy="2.08" r="2.08" transform="translate(13.557 0)" fill="#3f3d56"/>
      <circle id="Ellipse_250" data-name="Ellipse 250" cx="2.08" cy="2.08" r="2.08" transform="translate(19.97 0)" fill="#3f3d56"/>
      <rect id="Rectangle_1587" data-name="Rectangle 1587" width="48.981" height="0.55" transform="translate(84.346 21.45)" fill="#3f3d56"/>
      <rect id="Rectangle_1588" data-name="Rectangle 1588" width="48.981" height="0.55" transform="translate(84.346 25.303)" fill="#3f3d56"/>
      <rect id="Rectangle_1589" data-name="Rectangle 1589" width="48.981" height="0.55" transform="translate(84.346 29.155)" fill="#3f3d56"/>
    </g>
  </g>
</svg>
