<svg xmlns="http://www.w3.org/2000/svg" width="183.403" height="186.844" viewBox="0 0 183.403 186.844"><defs><style>.a{fill:#e6e6e6;}.b{fill:#fff;}.c{fill:#6c63ff;}.d{fill:#a0616a;}.e{fill:#2f2e41;}</style></defs><g transform="translate(0 3.229)"><path class="a" d="M302.108,250.7a1.6,1.6,0,0,0-1.1,1.963l26.626,95.09a1.6,1.6,0,0,0,1.963,1.1l98.157-27.485a1.6,1.6,0,0,0,1.1-1.963l-26.626-95.09a1.6,1.6,0,0,0-1.963-1.1Z" transform="translate(-300.944 -211.135)"/><path class="b" d="M339.384,352.926l93.538-26.191-25.333-90.471-93.537,26.191Z" transform="translate(-309.503 -219.693)"/><path class="a" d="M348.36,324.014c-.624.175-.881,1.211-.574,2.311s1.066,1.852,1.69,1.677l42.661-11.945c.624-.175.881-1.211.574-2.311s-1.066-1.852-1.69-1.677Z" transform="translate(-331.444 -269.172)"/><path class="a" d="M358.258,359.366c-.624.175-.881,1.211-.574,2.311s1.066,1.852,1.69,1.677l42.661-11.945c.624-.175.881-1.211.574-2.311s-1.066-1.852-1.69-1.677Z" transform="translate(-337.907 -292.254)"/><path class="a" d="M368.043,394.31c-.624.175-.881,1.211-.573,2.311s1.066,1.852,1.69,1.677l42.661-11.945c.624-.175.881-1.211.574-2.311s-1.066-1.852-1.69-1.677Z" transform="translate(-344.296 -315.07)"/><path class="a" d="M377.942,429.662c-.624.175-.881,1.211-.574,2.311s1.066,1.852,1.69,1.677L421.72,421.7c.624-.175.881-1.211.574-2.311s-1.066-1.852-1.69-1.677Z" transform="translate(-350.759 -338.152)"/><path class="a" d="M532.134,290.711a2.071,2.071,0,1,0,1.117,3.988l7.975-2.233a2.071,2.071,0,1,0-1.117-3.988Z" transform="translate(-450.907 -253.734)"/><path class="a" d="M541.841,325.378a2.071,2.071,0,0,0,1.117,3.988l7.975-2.233a2.07,2.07,0,1,0-1.117-3.988Z" transform="translate(-457.245 -276.369)"/><path class="a" d="M551.548,360.045a2.071,2.071,0,0,0,1.117,3.988l7.975-2.233a2.071,2.071,0,0,0-1.117-3.988Z" transform="translate(-463.583 -299.004)"/><path class="a" d="M561.255,394.711a2.071,2.071,0,0,0,1.117,3.988l7.975-2.233a2.071,2.071,0,1,0-1.117-3.988Z" transform="translate(-469.921 -321.639)"/><path class="c" d="M569.749,453.608a2.638,2.638,0,0,0,1.423,5.081l10.162-2.845a2.638,2.638,0,0,0-1.423-5.081h0Z" transform="translate(-475.196 -359.681)"/><rect class="a" width="78.091" height="0.694" transform="matrix(0.963, -0.27, 0.27, 0.963, 29.813, 104.721)"/><path class="d" d="M492.877,462.309l-6.031,1.458L478.352,441.2l8.9-2.152Z" transform="translate(-312.33 -288.775)"/><path class="e" d="M773.307,694.371l-.041-.169a7.717,7.717,0,0,1,5.681-9.3l11.8-2.853,1.852,7.661Z" transform="translate(-609.196 -510.757)"/><path class="d" d="M426.05,472.886h-6.2l-2.952-23.933h9.157Z" transform="translate(-272.202 -295.243)"/><path class="e" d="M711.212,702.626H691.365v-.174a7.708,7.708,0,0,1,7.708-7.708h12.14Z" transform="translate(-555.861 -519.047)"/><path class="e" d="M706.49,529.68l-6.024-71.8,24.939-4.6.1-.018,7.3,4.692-2.541,26.424,11.7,41.2-10.1,2.658-11.717-38.208-2.681-11.619-1.374,15.1,1.02,37.233Z" transform="translate(-561.803 -361.379)"/><path class="c" d="M698.117,342.823l-.066-.084,8.618-64.887.011-.085.061-.061c.127-.127,3.147-3.111,6.252-3.111.449,0,.876-.011,1.285-.022,2.377-.062,4.254-.111,6.485,2.12,2.273,2.273,9.69,10.573,9.69,21.942,0,11,1,45.2,1.012,45.542l.014.483-.4-.263c-.1-.064-10.076-6.416-18.442-.512a12.035,12.035,0,0,1-6.972,2.493A10.353,10.353,0,0,1,698.117,342.823Z" transform="translate(-560.227 -244.694)"/><circle class="d" cx="12.431" cy="12.431" r="12.431" transform="translate(134.577 8.695) rotate(-28.663)"/><path class="d" d="M666.9,465.438a5.089,5.089,0,0,0,.3-7.8l7.059-16.651-9.243,1.7-5.287,15.552a5.117,5.117,0,0,0,7.175,7.2Z" transform="translate(-534.484 -353.363)"/><path class="c" d="M662.824,351.089l2.273-4.8a.935.935,0,0,1-.336-.348c-2.124-3.681,10.7-34.246,11.56-36.274-.13-1.1-1.477-12.788-.492-16.726,1.159-4.637,3.539-6.8,7.958-7.225,4.873-.458,6.188,6.16,6.2,6.228l0,17.013L684.4,328.542l-12.756,26.021Z" transform="translate(-537.226 -251.967)"/><path class="e" d="M713.085,202.875c-1.49.194-2.614-1.331-3.135-2.74s-.919-3.05-2.214-3.811c-1.77-1.04-4.035.211-6.059-.132-2.286-.388-3.772-2.81-3.889-5.126s.8-4.543,1.709-6.677l.316,2.653a5.261,5.261,0,0,1,2.3-4.6l-.407,3.893a4.132,4.132,0,0,1,4.754-3.419l-.064,2.32a38.315,38.315,0,0,1,7.951-.389,12.859,12.859,0,0,1,7.321,2.821c3,2.609,4.1,6.9,3.73,10.864s-2,7.68-3.706,11.274c-.429.9-1.022,1.924-2.016,2.04a2.03,2.03,0,0,1-1.988-1.5,5.431,5.431,0,0,1,.024-2.668,11.342,11.342,0,0,0,.332-4.037,3.29,3.29,0,0,0-2.547-2.823c-1.348-.164-2.728,1.377-2.08,2.571Z" transform="translate(-560.049 -184.552)"/></g></svg>