<svg xmlns="http://www.w3.org/2000/svg" width="240.502" height="182.632" viewBox="0 0 240.502 182.632"><defs><style>.a,.d{fill:#6c63ff;}.a,.b,.e{opacity:0.1;}.c{fill:#3f3d56;}.f{fill:#192534;}.g{fill:#fbbebe;}.h{fill:#f2f2f2;}.i{fill:#01e7c0;}.j{fill:#be000f;}.k{fill:#55acee;}.l{fill:#3b5998;}.m{fill:#dd4b39;}.n{fill:#e53c5f;}.o{fill:#007bb6;}.p{fill:#464a5f;}.q{fill:#9c9ca1;}.r{fill:#939498;}</style></defs><g transform="translate(0.09)"><path class="a" d="M865.477,645.046l-24.608-42.623a.783.783,0,0,0-1.359,0L814.9,645.046a.783.783,0,0,0,.679,1.186h7.341a.788.788,0,0,1,.785.785v9.1a.786.786,0,0,0,.783.785h9.569a.785.785,0,0,0,.785-.785v-4.4a.783.783,0,0,1,.783-.783h9.108a.785.785,0,0,1,.785.783v4.4a.785.785,0,0,0,.785.785h9.581a.785.785,0,0,0,.785-.785v-9.108a.785.785,0,0,1,.785-.785H864.8a.785.785,0,0,0,.681-1.177Zm-34.31,4.717a.783.783,0,0,1-.555.237h-3.455a.785.785,0,0,1,0-1.571h3.455a.785.785,0,0,1,.555,1.34Zm22.606,0a.783.783,0,0,1-.555.237h-3.452a.785.785,0,1,1,0-1.571h3.452a.785.785,0,0,1,.555,1.34Z" transform="translate(-643.657 -474.642)"/><path class="a" d="M235.524,646.633,210.915,604.01a.785.785,0,0,0-1.359,0L188.3,640.825a64.924,64.924,0,0,0,8.9,9.184h3.454a.785.785,0,0,1,0,1.571H199.2a38.023,38.023,0,0,0,5.694,3.542v-1.815a.785.785,0,0,1,.785-.785H214.8a.785.785,0,0,1,.783.785V657.7a.763.763,0,0,0,.074.33.785.785,0,0,0,.712.455h9.578a.768.768,0,0,0,.624-.315.755.755,0,0,0,.159-.475v-9.1a.785.785,0,0,1,.785-.785h7.341a.785.785,0,0,0,.667-1.179Zm-16.266,3.606a.783.783,0,0,1,.555-.237h3.454a.785.785,0,1,1,0,1.571h-3.454a.785.785,0,0,1-.555-1.341ZM203.8,634.467a.785.785,0,0,1-.785-.785v-5.965a.785.785,0,0,1,.785-.785h12.874a.785.785,0,0,1,.783.785v5.965a.785.785,0,0,1-.783.785Z" transform="translate(-165.808 -475.855)"/><path class="a" d="M488.967,410.219H458.521v-6.586a1.575,1.575,0,0,0-1.575-1.575H448v-7.016a.992.992,0,0,0-.992-.992H435.486a.992.992,0,0,0-.992.992v7.016H423.981a1.575,1.575,0,0,0-1.575,1.575v6.586H393.368a.32.32,0,0,0-.318.32v87.435a.32.32,0,0,0,.318.32h19.3a.32.32,0,0,0,.32-.32V486.211a.323.323,0,0,1,.32-.32h8.152a.323.323,0,0,1,.32.32v11.763a.32.32,0,0,0,.318.32h38.139a.323.323,0,0,0,.32-.32V486.211a.32.32,0,0,1,.318-.32h8.152a.32.32,0,0,1,.32.32v11.763a.323.323,0,0,0,.32.32h19.3a.323.323,0,0,0,.32-.32V410.54A.323.323,0,0,0,488.967,410.219ZM409.532,481.8a.318.318,0,0,1-.318.318h-11.92a.318.318,0,0,1-.32-.318v-4.071a.32.32,0,0,1,.32-.32h11.92a.32.32,0,0,1,.318.32Zm0-10.52a.318.318,0,0,1-.318.32h-11.92a.318.318,0,0,1-.32-.32v-4.069a.318.318,0,0,1,.32-.32h11.92a.318.318,0,0,1,.318.32Zm0-10.518a.32.32,0,0,1-.318.32h-11.92a.32.32,0,0,1-.32-.32V456.7a.32.32,0,0,1,.32-.32h11.92a.32.32,0,0,1,.318.32Zm0-10.52a.318.318,0,0,1-.318.32h-11.92a.318.318,0,0,1-.32-.32v-4.069a.318.318,0,0,1,.32-.32h11.92a.318.318,0,0,1,.318.32Zm0-10.518a.32.32,0,0,1-.318.32h-11.92a.32.32,0,0,1-.32-.32v-4.071a.318.318,0,0,1,.32-.318h11.92a.318.318,0,0,1,.318.318Zm0-10.518a.318.318,0,0,1-.318.318h-11.92a.318.318,0,0,1-.32-.318V425.14a.32.32,0,0,1,.32-.32h11.92a.32.32,0,0,1,.318.32Zm0-10.52a.318.318,0,0,1-.318.32h-11.92a.318.318,0,0,1-.32-.32v-4.069a.318.318,0,0,1,.32-.32h11.92a.318.318,0,0,1,.318.32Zm28.26,63.111a.318.318,0,0,1-.32.318H425.543a.32.32,0,0,1-.32-.318v-4.069a.323.323,0,0,1,.32-.32h11.92a.32.32,0,0,1,.32.32Zm0-10.52a.318.318,0,0,1-.32.32H425.543a.32.32,0,0,1-.32-.32v-4.067a.32.32,0,0,1,.32-.32h11.92a.318.318,0,0,1,.32.32Zm0-10.518a.32.32,0,0,1-.32.32H425.543a.323.323,0,0,1-.32-.32V456.7a.323.323,0,0,1,.32-.32h11.92a.32.32,0,0,1,.32.32Zm0-10.52a.318.318,0,0,1-.32.32H425.543a.32.32,0,0,1-.32-.32v-4.067a.32.32,0,0,1,.32-.32h11.92a.318.318,0,0,1,.32.32Zm0-10.518a.32.32,0,0,1-.32.32H425.543a.323.323,0,0,1-.32-.32v-4.069a.32.32,0,0,1,.32-.318h11.92a.318.318,0,0,1,.32.318Zm0-10.518a.318.318,0,0,1-.32.318H425.543a.32.32,0,0,1-.32-.318V425.14a.323.323,0,0,1,.32-.32h11.92a.32.32,0,0,1,.32.32Zm0-10.52a.318.318,0,0,1-.32.32H425.543a.32.32,0,0,1-.32-.32v-4.067a.32.32,0,0,1,.32-.32h11.92a.318.318,0,0,1,.32.32ZM457.1,481.8a.318.318,0,0,1-.32.318h-11.92a.32.32,0,0,1-.32-.318v-4.067a.322.322,0,0,1,.32-.32h11.92a.32.32,0,0,1,.32.32Zm0-10.52a.318.318,0,0,1-.32.32h-11.92a.32.32,0,0,1-.32-.32v-4.064a.32.32,0,0,1,.32-.32h11.92a.318.318,0,0,1,.32.32Zm0-10.518a.32.32,0,0,1-.32.32h-11.92a.323.323,0,0,1-.32-.32V456.7a.323.323,0,0,1,.32-.32h11.92a.32.32,0,0,1,.32.32Zm0-10.52a.318.318,0,0,1-.32.32h-11.92a.32.32,0,0,1-.32-.32v-4.064a.32.32,0,0,1,.32-.32h11.92a.318.318,0,0,1,.32.32Zm0-10.518a.32.32,0,0,1-.32.32h-11.92a.323.323,0,0,1-.32-.32v-4.067a.32.32,0,0,1,.32-.318h11.92a.318.318,0,0,1,.32.318Zm0-10.518a.318.318,0,0,1-.32.318h-11.92a.32.32,0,0,1-.32-.318V425.14a.323.323,0,0,1,.32-.32h11.92a.32.32,0,0,1,.32.32Zm0-10.52a.318.318,0,0,1-.32.32h-11.92a.32.32,0,0,1-.32-.32v-4.064a.32.32,0,0,1,.32-.32h11.92a.318.318,0,0,1,.32.32Zm28.26,63.111a.32.32,0,0,1-.32.318h-11.92a.318.318,0,0,1-.32-.318v-4.064a.32.32,0,0,1,.32-.32h11.92a.323.323,0,0,1,.32.32Zm0-10.52a.32.32,0,0,1-.32.32h-11.92a.318.318,0,0,1-.32-.32v-4.062a.318.318,0,0,1,.32-.32h11.92a.32.32,0,0,1,.32.32Zm0-10.518a.323.323,0,0,1-.32.32h-11.92a.32.32,0,0,1-.32-.32V456.7a.32.32,0,0,1,.32-.32h11.92a.323.323,0,0,1,.32.32Zm0-10.52a.32.32,0,0,1-.32.32h-11.92a.318.318,0,0,1-.32-.32v-4.062a.318.318,0,0,1,.32-.32h11.92a.32.32,0,0,1,.32.32Zm0-10.518a.323.323,0,0,1-.32.32h-11.92a.32.32,0,0,1-.32-.32v-4.064a.318.318,0,0,1,.32-.318h11.92a.32.32,0,0,1,.32.318Zm0-10.518a.32.32,0,0,1-.32.318h-11.92a.318.318,0,0,1-.32-.318V425.14a.32.32,0,0,1,.32-.32h11.92a.323.323,0,0,1,.32.32Zm0-10.52a.32.32,0,0,1-.32.32h-11.92a.318.318,0,0,1-.32-.32v-4.062a.318.318,0,0,1,.32-.32h11.92a.32.32,0,0,1,.32.32Z" transform="translate(-321.979 -316.009)"/><g class="b" transform="translate(-0.09 66.648)"><path class="c" d="M159.533,675.412a5.8,5.8,0,0,1-.766,2.937,6.012,6.012,0,0,1,0,5.875,5.4,5.4,0,0,1,.579,1.424,107.76,107.76,0,0,1-7.139-10.677h0a5.7,5.7,0,0,1,.75-2.505,5.8,5.8,0,0,1-.766-2.918,6.041,6.041,0,0,1,.346-2.043,5.072,5.072,0,0,1,.42-.895,3.192,3.192,0,0,1,5.81,0,5.28,5.28,0,0,1,.41.866,6.082,6.082,0,0,1,.356,2.071,5.994,5.994,0,0,0,0,5.865Z" transform="translate(-138.175 -589.123)"/><ellipse class="c" cx="3.67" cy="4.807" rx="3.67" ry="4.807" transform="translate(14.015 69.733)"/><ellipse class="c" cx="3.67" cy="4.807" rx="3.67" ry="4.807" transform="translate(14.015 63.858)"/><path class="d" d="M128.315,385.367a17.5,17.5,0,0,1-3.765,10.873,17.588,17.588,0,0,1-10.439,28.132c-.422.085-.852.152-1.286.2a17.767,17.767,0,0,1-4.033.021q-.669-.071-1.322-.2a17.391,17.391,0,0,1-5.457-2,175.229,175.229,0,0,1-8.283-19.889,17.507,17.507,0,0,1,3.153-6.276,17.6,17.6,0,0,1-2.835-16.516l13.353,4.482L94.878,377.7a17.655,17.655,0,0,1,2.026-3.208,17.588,17.588,0,1,1,29.048-19.681l-12.909,9.49,14-7.26a17.609,17.609,0,0,1-.337,13.934l-10.439-.078,9.647,1.585a17.657,17.657,0,0,1-1.369,2.012A17.51,17.51,0,0,1,128.315,385.367Z" transform="translate(-93.12 -346.029)"/><path class="e" d="M128.353,532.744A17.592,17.592,0,0,1,114.163,550c-.425.086-.855.152-1.289.2a17.763,17.763,0,0,1-4.033.021q-.669-.071-1.322-.2a17.39,17.39,0,0,1-5.457-2,175.226,175.226,0,0,1-8.283-19.889,17.507,17.507,0,0,1,3.153-6.276A17.517,17.517,0,0,1,93.17,511c0-1.974,33.767,7.882,31.408,10.874A17.5,17.5,0,0,1,128.353,532.744Z" transform="translate(-93.158 -471.659)"/></g><g class="b" transform="translate(216.525 85.527)"><path class="c" d="M1067.681,690.44c-.688,2.2-1.424,4.377-2.178,6.508a6.1,6.1,0,0,1-.313-1.948A4.89,4.89,0,0,1,1067.681,690.44Z" transform="translate(-1051.173 -627.605)"/><path class="d" d="M1030,450.576a102.112,102.112,0,0,1-2.373,18.269,200.917,200.917,0,0,1-5.018,19.59c-.688,2.2-1.424,4.377-2.178,6.508-.866,2.418-1.78,4.771-2.736,7.023a17.652,17.652,0,0,1-7.808-27.465,17.676,17.676,0,0,1-2.847-16.553l13.353,4.491-12.522-6.52a17.72,17.72,0,0,1,2-3.215,17.65,17.65,0,0,1,6.909-27.1,30.262,30.262,0,0,1,11.566,15.168l-2.337,1.72,2.482-1.288a30.128,30.128,0,0,1,1.445,7.905h-.7l.712.116C1029.989,449.658,1030,450.133,1030,450.576Z" transform="translate(-1006.112 -425.6)"/><path class="e" d="M1027.713,590.178a200.91,200.91,0,0,1-5.018,19.59c-.688,2.2-1.424,4.377-2.178,6.508-.866,2.418-1.78,4.771-2.736,7.023a17.652,17.652,0,0,1-7.808-27.465,17.586,17.586,0,0,1-3.763-10.9C1006.21,583.741,1018.481,586.859,1027.713,590.178Z" transform="translate(-1006.186 -546.933)"/></g><path class="a" d="M350.664,158.944a6.857,6.857,0,0,0-3.972.434,5.863,5.863,0,0,1-4.778,0,6.705,6.705,0,0,0-5.618.109,3.473,3.473,0,0,1-1.618.406c-2.278,0-4.173-2.294-4.567-5.322a4.408,4.408,0,0,0,1.139-1.229,6.4,6.4,0,0,1,11.422-.038,4.4,4.4,0,0,0,3.784,2.066h.059C348.329,155.371,349.9,156.826,350.664,158.944Z" transform="translate(-273.972 -129.717)"/><path class="a" d="M357.545,122.258l-3.682,2.337,2.233-4.059a3.654,3.654,0,0,0-2.228-.795h-.059a4.309,4.309,0,0,1-.764-.055l-1.248.79.536-.973a4.432,4.432,0,0,1-2.183-1.661l-2.235,1.424,1.412-2.565a6.541,6.541,0,0,0-5-2.532,6.861,6.861,0,0,0-5.727,3.535,4.271,4.271,0,0,1-3.8,2.04h-.126c-2.565,0-4.643,2.909-4.643,6.494s2.078,6.494,4.643,6.494a3.493,3.493,0,0,0,1.618-.4,6.7,6.7,0,0,1,5.618-.112,5.863,5.863,0,0,0,4.778.012,6.712,6.712,0,0,1,5.571.107,3.476,3.476,0,0,0,1.6.4c2.565,0,4.643-2.906,4.643-6.494A8.247,8.247,0,0,0,357.545,122.258Z" transform="translate(-273.911 -102.532)"/><path class="a" d="M815.472,331.234a4.8,4.8,0,0,0-2.785.3,4.1,4.1,0,0,1-3.345,0,4.7,4.7,0,0,0-3.934.076,2.441,2.441,0,0,1-1.132.285c-1.594,0-2.921-1.609-3.2-3.727a3.073,3.073,0,0,0,.8-.859,4.484,4.484,0,0,1,8-.028,3.084,3.084,0,0,0,2.648,1.457h.043A3.322,3.322,0,0,1,815.472,331.234Z" transform="translate(-633.201 -263.219)"/><path class="a" d="M820.321,305.531l-2.577,1.635,1.564-2.847a2.537,2.537,0,0,0-1.559-.558h-.04a2.663,2.663,0,0,1-.534-.04l-.875.555.375-.681a3.115,3.115,0,0,1-1.528-1.16l-1.564.992.987-1.8a4.579,4.579,0,0,0-3.5-1.77,4.789,4.789,0,0,0-4.01,2.472,3,3,0,0,1-2.65,1.424h-.088c-1.794,0-3.25,2.036-3.25,4.546s1.457,4.546,3.25,4.546a2.414,2.414,0,0,0,1.132-.285,4.7,4.7,0,0,1,3.934-.076,4.152,4.152,0,0,0,1.682.361,4.1,4.1,0,0,0,1.661-.354,4.7,4.7,0,0,1,3.9.076,2.43,2.43,0,0,0,1.12.278c1.8,0,3.25-2.036,3.25-4.546A5.777,5.777,0,0,0,820.321,305.531Z" transform="translate(-633.193 -244.166)"/><path class="a" d="M284.41,286.234a4.8,4.8,0,0,1,2.785.3,4.09,4.09,0,0,0,3.343,0,4.7,4.7,0,0,1,3.934.076,2.448,2.448,0,0,0,1.132.285c1.594,0,2.923-1.609,3.2-3.727a3.034,3.034,0,0,1-.8-.859,4.484,4.484,0,0,0-8-.028,3.084,3.084,0,0,1-2.65,1.457h-.04A3.32,3.32,0,0,0,284.41,286.234Z" transform="translate(-239.115 -228.896)"/><path class="a" d="M261.793,260.53l2.579,1.635-1.566-2.847a2.541,2.541,0,0,1,1.559-.558h.055a2.675,2.675,0,0,0,.534-.04l.873.555-.375-.681a3.119,3.119,0,0,0,1.53-1.16l1.564.992-.989-1.8a4.583,4.583,0,0,1,3.5-1.77,4.8,4.8,0,0,1,4.01,2.472,3,3,0,0,0,2.65,1.424h.085c1.8,0,3.25,2.036,3.25,4.546s-1.454,4.546-3.25,4.546a2.427,2.427,0,0,1-1.132-.285,4.7,4.7,0,0,0-3.934-.076,4.141,4.141,0,0,1-1.68.361,4.086,4.086,0,0,1-1.661-.354,4.7,4.7,0,0,0-3.9.076,2.422,2.422,0,0,1-1.12.278c-1.794,0-3.25-2.036-3.25-4.546A5.777,5.777,0,0,1,261.793,260.53Z" transform="translate(-221.357 -209.843)"/><path class="f" d="M340.926,367.674l52.062,25.149a12.956,12.956,0,0,0,9.908,0l52.062-25.149c2.74-1.324,2.74-3.478,0-4.8L402.9,337.725a12.956,12.956,0,0,0-9.908,0l-52.062,25.149C338.195,364.2,338.195,366.35,340.926,367.674Z" transform="translate(-280.66 -272.296)"/><path class="f" d="M454.728,557.515s-9.507-4.584-10.769-5.2a2.545,2.545,0,0,0-2.923.031c-1.324.615-38.4,18.535-38.4,18.535a12.955,12.955,0,0,1-9.908,0s-36.094-17.415-37.786-18.245c-1.846-.892-2.373-.892-4.033-.093L340.633,557.5c-2.74,1.324-2.74,3.476,0,4.8l52.062,25.149a12.955,12.955,0,0,0,9.908,0L454.664,562.3c2.8-1.293,2.8-3.445.062-4.769Z" transform="translate(-280.431 -436.382)"/><path class="f" d="M454.827,686.295s-9.507-4.584-10.769-5.2a2.544,2.544,0,0,0-2.923.031c-1.324.615-38.37,18.554-38.37,18.554a12.927,12.927,0,0,1-9.908,0s-36.094-17.415-37.786-18.245c-1.846-.892-2.373-.892-4.033-.093l-10.276,4.954c-2.74,1.324-2.74,3.478,0,4.8l52.062,25.149a11.505,11.505,0,0,0,4.954.985,11.979,11.979,0,0,0,4.954-.985L454.8,691.095C457.568,689.773,457.568,687.619,454.827,686.295Z" transform="translate(-280.53 -534.608)"/><ellipse class="f" cx="11.303" cy="15.699" rx="11.303" ry="15.699" transform="translate(74.38 34.552)"/><rect class="d" width="10.048" height="10.048" transform="translate(84.428 75.999)"/><path class="g" d="M414.343,576.62l3.3,4.641a6.012,6.012,0,0,1,2.384-4.807,29.372,29.372,0,0,0-4.672-3.746.374.374,0,0,0-.27-.09.393.393,0,0,0-.2.149,6.386,6.386,0,0,0-1.326,2.1C413.356,575.555,413.94,576.069,414.343,576.62Z" transform="translate(-337.59 -452.208)"/><path class="h" d="M431.056,586.82a2.929,2.929,0,0,1,1.424.491,7.294,7.294,0,0,1,1.639,1.075,2.486,2.486,0,0,1,.84,1.72,4.342,4.342,0,0,1-.408,1.523,13.168,13.168,0,0,0-.612,7.213,4.824,4.824,0,0,1,.138,2.373,3.871,3.871,0,0,1-1.357,1.682,6.318,6.318,0,0,1-3.039,1.625,2.451,2.451,0,0,1-2.747-1.6,4.427,4.427,0,0,1,.254-2.019,19.52,19.52,0,0,0,.375-4.88,6.731,6.731,0,0,0-.123-1.483c-.078-.342-.211-.669-.323-1a4.172,4.172,0,0,1-.088-2.788,5.555,5.555,0,0,1,.771-1.267C428.6,588.4,429.476,586.813,431.056,586.82Z" transform="translate(-347.74 -463.042)"/><path class="g" d="M427.835,282.615a2.535,2.535,0,0,1-1.322,2.821l-1.407,1.018c-.071.05-.15.114-.157.2a.3.3,0,0,0,.152.237,4.667,4.667,0,0,0,1.953.89,9.258,9.258,0,0,0,1.516.128,26.875,26.875,0,0,0,7.867-.555,4.033,4.033,0,0,0,1.3-.553,1.661,1.661,0,0,0,.731-1.165,3.608,3.608,0,0,1-1.76-.785,2.749,2.749,0,0,1-1.255-1.381c-.107-.382-.045-.795-.133-1.186a2.384,2.384,0,0,0-1.239-1.424c-1.457-.826-3.177-.875-4.764-1.307-.569-.154-1.587-.838-1.625.085C427.652,280.617,427.788,281.638,427.835,282.615Z" transform="translate(-346.311 -228.38)"/><path class="e" d="M427.835,282.615a2.535,2.535,0,0,1-1.322,2.821l-1.407,1.018c-.071.05-.15.114-.157.2a.3.3,0,0,0,.152.237,4.667,4.667,0,0,0,1.953.89,9.258,9.258,0,0,0,1.516.128,26.875,26.875,0,0,0,7.867-.555,4.033,4.033,0,0,0,1.3-.553,1.661,1.661,0,0,0,.731-1.165,3.608,3.608,0,0,1-1.76-.785,2.749,2.749,0,0,1-1.255-1.381c-.107-.382-.045-.795-.133-1.186a2.384,2.384,0,0,0-1.239-1.424c-1.457-.826-3.177-.875-4.764-1.307-.569-.154-1.587-.838-1.625.085C427.652,280.617,427.788,281.638,427.835,282.615Z" transform="translate(-346.311 -228.38)"/><path class="i" d="M365.364,361.7a8.782,8.782,0,0,0-6.064,1.227,49.772,49.772,0,0,1-5.549,3.032c-1.583.6-3.345.866-4.676,1.912a7.631,7.631,0,0,0-2.313,3.844,6.113,6.113,0,0,0-.327,2.539,6.881,6.881,0,0,0,.624,1.9,83.954,83.954,0,0,0,4.847,8.779c3.108,5.127,6.245,10.292,10.273,14.736,1.286-.883,1.16-3.008,2.434-3.905a6.882,6.882,0,0,0,.98-.638c.6-.624.368-1.644.083-2.463a123.258,123.258,0,0,0-6.266-14.871c3.466.024,6.373-2.686,9.787-3.293a18,18,0,0,1,2.861-.19,97.049,97.049,0,0,0,10.1-.712,6.126,6.126,0,0,0,3.417-1.174,6.3,6.3,0,0,0,1.573-3.414c.6-2.584,2.114-4.852,3.044-7.336.237-.641.474-1.284.766-1.9.256-.527.56-1.03.83-1.549a22.355,22.355,0,0,0,1.753-5.3c.5-2.183.949-4.413,1.409-6.605.308-1.509.909-3.146.192-4.508a4.072,4.072,0,0,0-1.964-1.661,4.825,4.825,0,0,0-2.712-.493c-1.813.287-3.034,1.948-4.052,3.471l-1.59,2.394a16.9,16.9,0,0,0-1.049,1.715,34.083,34.083,0,0,0-1.381,3.689,14.288,14.288,0,0,1-6.714,7.87c-.84.42-1.727.736-2.572,1.141-.662.318-1.3.69-1.967.994A8.8,8.8,0,0,1,365.364,361.7Z" transform="translate(-286.407 -274.489)"/><circle class="g" cx="6.28" cy="6.28" r="6.28" transform="translate(80.661 42.087)"/><path class="d" d="M410.123,299.07a6.489,6.489,0,0,1-1.046,2.029,5.1,5.1,0,0,1-3.715,1.457,10.984,10.984,0,0,1-4.46-.757,4.151,4.151,0,0,0-1.874-.474c-.937.083-1.632.871-2.458,1.324a12.361,12.361,0,0,1-1.3.56,7.227,7.227,0,0,0-4.164,5.253c-.475,2.676,1.68,5.22,2.985,7.607a15.667,15.667,0,0,1,1.556,3.212,9.871,9.871,0,0,1-.657,5.875,21.954,21.954,0,0,0-1.661,5.749c-.043.586.161,1.376.75,1.369a1.293,1.293,0,0,0,.6-.237,5.339,5.339,0,0,1,3.469-.638c.833.135,1.625.475,2.458.591a10.057,10.057,0,0,0,4.819-.906,9.769,9.769,0,0,0,4.069-2.3c.79-.878,1.243-2.024,2.055-2.883,1.068-1.127,2.679-1.68,3.571-2.949a10.1,10.1,0,0,0,1.042-2.52,3.774,3.774,0,0,1,1.561-2.171,4.548,4.548,0,0,1-.857-2.418,6.3,6.3,0,0,1,.771-2.112c.2-.453.361-.925.52-1.4l.512-1.526c.138-.415.278-.828.382-1.253.178-.712.252-1.471.46-2.185a13.417,13.417,0,0,1,3.134-4.769,20.124,20.124,0,0,0-3.371-.973,5.07,5.07,0,0,1-1.129-.294c-.415-.183-.766-.474-1.167-.693a6.508,6.508,0,0,0-2.043-.52A28.948,28.948,0,0,1,410.123,299.07Z" transform="translate(-320.444 -243.563)"/><path class="g" d="M382.055,385.874a6.12,6.12,0,0,0,.055,1.661,6.5,6.5,0,0,0,.681,1.613c1.3,2.494,2.373,5.1,3.447,7.709a10.366,10.366,0,0,1,.69,2.083c.1.541.111,1.1.183,1.642a5.222,5.222,0,0,0,.425,1.556c.252.536,1.613,3.4,2.135,3.68a2.69,2.69,0,0,0,3.343-1.013c.714-1.061-.237-4.831-.565-6.062a15.221,15.221,0,0,0-1.632-3.454,63.477,63.477,0,0,1-2.973-6,10.043,10.043,0,0,1-1.125-5.526,17.669,17.669,0,0,1,1.034-3.046,5.047,5.047,0,0,0,.3-3.153,1.493,1.493,0,0,0-.237-.5,1.594,1.594,0,0,0-.664-.429c-1.11-.448-3.381-.821-3.86.671-.2.619-.237,1.3-.4,1.929a23.161,23.161,0,0,0-.555,3.063C382.193,383.483,382.124,384.679,382.055,385.874Z" transform="translate(-313.568 -302.423)"/><path class="g" d="M466.026,435.375q-2.1,2.477-4.086,5.051l3.426,2.532a7.217,7.217,0,0,1,.5-1.3,7.31,7.31,0,0,1,.814-1.151l3.471-4.3a6.147,6.147,0,0,0-2.693-.911C467,435.356,466.484,435.309,466.026,435.375Z" transform="translate(-374.525 -347.464)"/><path class="g" d="M523.693,318.887c.906.206,1.813.413,2.707.664a10.3,10.3,0,0,1,5.023,2.726c.285.318.543.8.292,1.148a1.61,1.61,0,0,1-.3.266,3.5,3.5,0,0,0-.759,1.117,8.757,8.757,0,0,1-1.587,2.1,6.92,6.92,0,0,0-1.753-1.383l-1.423-.89a5.48,5.48,0,0,0-2.017-.913,11.326,11.326,0,0,0-2.551.2,5.4,5.4,0,0,1-3.11-.712.743.743,0,0,1-.294-.254.732.732,0,0,1-.078-.275,3.734,3.734,0,0,1,.852-2.724c.439-.558,1.424-1.6,2.18-1.7a4.406,4.406,0,0,1,1.269.28Z" transform="translate(-417.152 -258.196)"/><path class="i" d="M490.93,345.63a6.083,6.083,0,0,0-.745.346,10.881,10.881,0,0,0-6.586,6.385l-3.1,6.591-.65,1.383-1,2.093-2.534,5.391a4.43,4.43,0,0,1,2.7.256,2.373,2.373,0,0,1,1.4,2.185c.735-.064,1.127-.864,1.644-1.39a10.288,10.288,0,0,1,1.466-1.061,11.59,11.59,0,0,0,1.739-1.687,51.01,51.01,0,0,1,5.26-5.068,11.831,11.831,0,0,0,1.044-.935,8.615,8.615,0,0,0,1.59-2.674,23.283,23.283,0,0,0,1.561-5.813,6.741,6.741,0,0,0-.278-3.616,4.033,4.033,0,0,0-4.449-2.23" transform="translate(-385.493 -279.077)"/><path class="e" d="M489.93,346.63a6.074,6.074,0,0,0-.745.346,10.881,10.881,0,0,0-6.586,6.385l-3.1,6.591-.65,1.383-1,2.093-2.534,5.391a4.43,4.43,0,0,1,2.7.256,2.372,2.372,0,0,1,1.4,2.185c.735-.064,1.127-.864,1.644-1.39a10.293,10.293,0,0,1,1.466-1.061,11.59,11.59,0,0,0,1.739-1.687,51.015,51.015,0,0,1,5.26-5.068,11.842,11.842,0,0,0,1.044-.935,8.616,8.616,0,0,0,1.59-2.674,23.281,23.281,0,0,0,1.561-5.813,6.741,6.741,0,0,0-.278-3.616,4.033,4.033,0,0,0-4.449-2.23" transform="translate(-384.73 -279.839)"/><path class="h" d="M449.356,452.4l-2.6-.285a.407.407,0,0,0-.214.017.38.38,0,0,0-.149.183q-1.253,2.358-2.339,4.8a3.179,3.179,0,0,0-.271,2.847c.152.252.373.46.515.712a2.417,2.417,0,0,1-.057,1.96,1.027,1.027,0,0,0-.1.576c.064.266.332.425.579.546a20.353,20.353,0,0,0,6.484,1.936.671.671,0,0,0,.505-.073.679.679,0,0,0,.195-.349,6.2,6.2,0,0,0,.211-.773,7.311,7.311,0,0,0-.292-2.819,9.342,9.342,0,0,1-.038-4.577,6.131,6.131,0,0,1,.83-1.737c.413-.6-1-1.17-1.374-1.592C450.611,453.052,450.417,452.518,449.356,452.4Z" transform="translate(-360.491 -360.293)"/><path class="d" d="M384.9,342.971l-.788,4.821a3.754,3.754,0,0,1,2.558-.759,3.417,3.417,0,0,1,2.61.752c.259.28.422.633.674.921a.985.985,0,0,0,1,.38.866.866,0,0,0,.508-.6,2.611,2.611,0,0,0,.047-.814l-.259-5.319a11.914,11.914,0,0,0-.6-3.8,5.933,5.933,0,0,0-1.108-1.791,1.942,1.942,0,0,0-.475-.41,1.987,1.987,0,0,0-.629-.187,3.793,3.793,0,0,0-2.195.076c-.475.282-.52.949-.574,1.443C385.467,339.46,385.187,341.218,384.9,342.971Z" transform="translate(-315.16 -271.763)"/><ellipse class="f" cx="8.793" cy="3.768" rx="8.793" ry="3.768" transform="translate(78.148 40.832)"/><circle class="f" cx="5.023" cy="5.023" r="5.023" transform="translate(70.613 34.552)"/><circle class="f" cx="5.023" cy="5.023" r="5.023" transform="translate(88.198 33.297)"/><path class="e" d="M475.109,207.831a5.025,5.025,0,0,1,1.108,6.553,5.292,5.292,0,0,0,.427-.463,5.025,5.025,0,1,0-7.811-6.323,5.327,5.327,0,0,0-.363.515A5.023,5.023,0,0,1,475.109,207.831Z" transform="translate(-379.505 -172.372)"/><path class="e" d="M395.366,212.137a5.025,5.025,0,0,1,6.311,2.076,5.175,5.175,0,0,0-.209-.593,5.025,5.025,0,1,0-9.235,3.963,4.578,4.578,0,0,0,.286.56,5.023,5.023,0,0,1,2.847-6.005Z" transform="translate(-321.045 -176.064)"/><path class="e" d="M431.673,253.589c-4.356,0-7.97-1.357-8.669-3.139a1.746,1.746,0,0,0-.123.629c0,2.081,3.936,3.768,8.793,3.768s8.793-1.687,8.793-3.768a1.7,1.7,0,0,0-.123-.629C439.642,252.241,436.029,253.589,431.673,253.589Z" transform="translate(-344.732 -206.479)"/><path class="j" d="M844.34,198a5.179,5.179,0,0,0-2.078,9.924,4.569,4.569,0,0,1,.09-1.186l.667-2.823a1.973,1.973,0,0,1-.166-.819c0-.769.444-1.341,1-1.341a.69.69,0,0,1,.7.776,11.16,11.16,0,0,1-.458,1.839.8.8,0,0,0,.819,1c.98,0,1.642-1.26,1.642-2.755a1.939,1.939,0,0,0-2.154-1.983,2.453,2.453,0,0,0-2.55,2.482,1.5,1.5,0,0,0,.342,1.015.237.237,0,0,1,.074.287c-.026.095-.081.325-.107.418a.176.176,0,0,1-.259.128,1.992,1.992,0,0,1-1.061-1.979,3.427,3.427,0,0,1,3.7-3.234,3.092,3.092,0,0,1,3.279,2.966c0,2.033-1.132,3.559-2.795,3.559a1.488,1.488,0,0,1-1.265-.645s-.3,1.186-.365,1.424a4.273,4.273,0,0,1-.522,1.11A5.179,5.179,0,1,0,844.34,198Z" transform="translate(-662.244 -166.473)"/><path class="k" d="M766.859,86.17a4.553,4.553,0,0,1-1.284.356,2.27,2.27,0,0,0,.985-1.241,4.474,4.474,0,0,1-1.423.543,2.237,2.237,0,0,0-3.872,1.53,2.291,2.291,0,0,0,.057.512,6.347,6.347,0,0,1-4.615-2.342,2.245,2.245,0,0,0,.7,2.989,2.166,2.166,0,0,1-1.018-.278v.026a2.24,2.24,0,0,0,1.8,2.2,2.3,2.3,0,0,1-.589.078,2.258,2.258,0,0,1-.422-.04,2.24,2.24,0,0,0,2.093,1.554,4.477,4.477,0,0,1-2.781.949,4.423,4.423,0,0,1-.534-.033,6.254,6.254,0,0,0,3.426,1.013,6.332,6.332,0,0,0,6.375-6.378V87.32A4.557,4.557,0,0,0,766.859,86.17Z" transform="translate(-598.778 -80.373)"/><path class="l" d="M457.7,65.12h-7.9a.491.491,0,0,0-.491.491v7.9A.491.491,0,0,0,449.8,74h3.943V70.484h-1.06v-1.3h1.06V68.24a1.687,1.687,0,0,1,1.82-1.772c.491,0,1.018.038,1.139.055v1.186h-.816c-.555,0-.662.266-.662.652v.826h1.326l-.173,1.3h-1.153V74h2.47a.491.491,0,0,0,.489-.491V65.611a.491.491,0,0,0-.484-.491Z" transform="translate(-364.891 -65.12)"/><path class="m" d="M569.426,151.187l-.036-.161H565.77v1.495h2.1a1.877,1.877,0,0,1-1.943,1.471,2.218,2.218,0,0,1-1.58-.586,2.332,2.332,0,0,1-.029-3.236,2.174,2.174,0,0,1,1.587-.588,2,2,0,0,1,1.343.489l1.11-1.1a3.753,3.753,0,0,0-2.489-.949,3.715,3.715,0,0,0-3.8,3.768,3.8,3.8,0,0,0,1.03,2.61,3.938,3.938,0,0,0,2.847,1.148,3.5,3.5,0,0,0,2.55-1.07,3.761,3.761,0,0,0,.98-2.61,4.249,4.249,0,0,0-.047-.674Zm4.482-.159h-1.319v-1.317h-.949v1.317h-1.319v.949h1.319v1.317h.949v-1.317h1.326Z" transform="translate(-450.897 -128.348)"/><path class="n" d="M284.98,192.745a1.855,1.855,0,0,1,1.848,1.851v3.7a1.846,1.846,0,0,1-.543,1.3,1.822,1.822,0,0,1-1.3.543h-3.7a1.855,1.855,0,0,1-1.848-1.848v-3.7a1.855,1.855,0,0,1,1.848-1.851h3.7m0-.74h-3.7a2.6,2.6,0,0,0-2.589,2.591v3.7a2.6,2.6,0,0,0,2.589,2.588h3.7a2.6,2.6,0,0,0,2.589-2.588v-3.7a2.6,2.6,0,0,0-2.589-2.6Z" transform="translate(-234.752 -161.897)"/><path class="n" d="M292.664,199.37a.553.553,0,1,1,.393-.162A.555.555,0,0,1,292.664,199.37Zm-2.4.37a1.48,1.48,0,1,1-1.481,1.478,1.48,1.48,0,0,1,1.481-1.478m0-.74a2.218,2.218,0,1,0,1.57.649A2.221,2.221,0,0,0,290.261,199Z" transform="translate(-241.884 -166.671)"/><path class="o" d="M714.546,288h-7.407a.724.724,0,0,0-.759.693v7.424a.78.78,0,0,0,.759.759h7.4a.743.743,0,0,0,.712-.759v-7.419a.681.681,0,0,0-.709-.7Zm-5.409,7.4h-1.272v-3.955h1.272Zm-.593-4.555h0a.683.683,0,1,1,.7-.683.653.653,0,0,1-.712.681Zm5.239,4.555h-1.276v-2.164c0-.517-.185-.871-.645-.871a.693.693,0,0,0-.65.474.833.833,0,0,0-.045.311v2.254h-1.272v-3.96h1.272V292a1.289,1.289,0,0,1,1.148-.643c.833,0,1.464.55,1.464,1.737Z" transform="translate(-560.969 -235.117)"/><path class="p" d="M424.31,379.157l.629,1.137,20.459-4.337-.809-1.286Z" transform="translate(-323.708 -285.776)"/><path class="p" d="M497.2,394.024l-3.1-18.378a.588.588,0,0,1,.517-.681l23.489-2.505a.586.586,0,0,1,.643.5l2.2,16.1Z" transform="translate(-399.052 -299.538)"/><path class="e" d="M497.2,394.024l-3.1-18.378a.588.588,0,0,1,.517-.681l23.489-2.505a.586.586,0,0,1,.643.5l2.2,16.1Z" transform="translate(-399.052 -299.538)"/><path class="p" d="M498.72,394.024l-3.1-18.378a.586.586,0,0,1,.515-.681l23.489-2.505a.586.586,0,0,1,.643.5l2.195,16.1Z" transform="translate(-400.21 -299.538)"/><path class="d" d="M409.31,315.781l2.543,15.614,21.235-4.368-1.974-13.877Z" transform="translate(-312.267 -238.853)"/><path class="q" d="M510.151,447l-.15-.3-2.811.629,7.16,10.942a.925.925,0,0,0,1.035.382l25.149-7.31a.925.925,0,0,0,.3-1.628l-9.747-7.381-2.033.475.09.209Z" transform="translate(-409.039 -352.834)"/><path class="e" d="M510.151,447l-.15-.3-2.811.629,7.16,10.942a.925.925,0,0,0,1.035.382l25.149-7.31a.925.925,0,0,0,.3-1.628l-9.747-7.381-2.033.475.09.209Z" transform="translate(-409.039 -352.834)"/><path class="q" d="M511.661,447l-.149-.3-2.812.629,7.161,10.942a.925.925,0,0,0,1.035.382l25.149-7.31a.925.925,0,0,0,.3-1.628L532.6,442.33l-2.033.475.09.209Z" transform="translate(-410.19 -352.834)"/><path class="e" d="M568.113,474.089l8.081-2.1a.159.159,0,0,1,.145.036l3.59,3.258a.157.157,0,0,1-.062.266l-8.541,2.524a.154.154,0,0,1-.161-.05l-3.125-3.68a.159.159,0,0,1,.074-.249Z" transform="translate(-455.425 -375.449)"/><path class="r" d="M568.845,473.354l8.081-2.1a.156.156,0,0,1,.145.036l3.585,3.255a.157.157,0,0,1-.062.266l-8.541,2.524a.159.159,0,0,1-.164-.05l-3.122-3.68a.154.154,0,0,1,.078-.251Z" transform="translate(-455.976 -374.891)"/><g class="b" transform="translate(101.117 90.614)"><path d="M521.194,467.238l.363.584a.071.071,0,0,0,.074.033l1.227-.273a.071.071,0,0,0,.04-.109l-.406-.569a.069.069,0,0,0-.071-.028l-1.186.254a.069.069,0,0,0-.04.109Z" transform="translate(-520.827 -462.169)"/><path d="M527.964,465.844l.361.586a.073.073,0,0,0,.076.031l1.224-.273a.069.069,0,0,0,.04-.109l-.4-.565a.071.071,0,0,0-.071-.029L528,465.74a.069.069,0,0,0-.04.1Z" transform="translate(-525.992 -461.109)"/><path d="M534.5,464.417l.363.584a.071.071,0,0,0,.074.031l1.227-.273a.071.071,0,0,0,.04-.109l-.408-.565a.073.073,0,0,0-.071-.029l-1.186.254a.071.071,0,0,0-.038.107Z" transform="translate(-530.98 -460.019)"/><path d="M540.961,463.007l.358.576a.076.076,0,0,0,.081.033l1.215-.27a.076.076,0,0,0,.043-.116l-.4-.557a.073.073,0,0,0-.076-.029L541,462.9a.076.076,0,0,0-.036.112Z" transform="translate(-535.905 -458.941)"/><path d="M540.434,466.782l.363.584a.067.067,0,0,0,.074.031l1.224-.273a.066.066,0,0,0,.04-.107l-.4-.567a.069.069,0,0,0-.071-.026l-1.186.254a.069.069,0,0,0-.04.1Z" transform="translate(-535.504 -461.824)"/><path d="M533.761,468.232l.363.584a.071.071,0,0,0,.076.031l1.224-.273a.069.069,0,0,0,.04-.109l-.406-.555a.067.067,0,0,0-.071-.026l-1.186.254a.071.071,0,0,0-.04.039A.072.072,0,0,0,533.761,468.232Z" transform="translate(-530.418 -462.937)"/><path d="M538.1,471.231l.363.586a.076.076,0,0,0,.076.031l1.224-.273a.069.069,0,0,0,.04-.109l-.406-.562a.069.069,0,0,0-.071-.028l-1.186.254a.071.071,0,0,0-.04.1Z" transform="translate(-533.727 -465.22)"/><path d="M544.244,473.842l.363.584a.067.067,0,0,0,.074.031l1.224-.273a.069.069,0,0,0,.043-.107l-.406-.567a.069.069,0,0,0-.071-.026l-1.186.254a.069.069,0,0,0-.04.1Z" transform="translate(-538.41 -467.209)"/><path d="M545.3,477.9l.586.735a.069.069,0,0,0,.071.024l1.234-.32a.071.071,0,0,0,.038-.111l-.607-.74a.069.069,0,0,0-.071-.024l-1.215.327a.069.069,0,0,0-.036.109Z" transform="translate(-539.214 -470.244)"/><path d="M552.1,475.856l.6.757a.069.069,0,0,0,.071.024l1.611-.446a.071.071,0,0,0,.036-.112l-.607-.743a.069.069,0,0,0-.071-.024l-1.6.432a.071.071,0,0,0-.038.112Z" transform="translate(-544.403 -468.604)"/><path d="M538.652,479.587l.586.736a.069.069,0,0,0,.071.024l1.234-.32a.072.072,0,0,0,.049-.046.071.071,0,0,0-.011-.066l-.607-.743a.067.067,0,0,0-.071-.021l-1.215.325a.071.071,0,0,0-.036.112Z" transform="translate(-534.142 -471.53)"/><path d="M531.607,481.339l.586.733a.069.069,0,0,0,.071.024l1.234-.32a.071.071,0,0,0,.038-.112l-.6-.747a.074.074,0,0,0-.073-.024l-1.215.327a.071.071,0,0,0-.036.119Z" transform="translate(-528.764 -472.86)"/><path d="M547.408,461.5l.356.577a.076.076,0,0,0,.081.033l1.215-.271a.074.074,0,0,0,.043-.116l-.4-.558a.073.073,0,0,0-.076-.028l-1.172.251a.071.071,0,0,0-.047.112Z" transform="translate(-540.822 -457.789)"/><path d="M546.974,465.247l.356.576a.076.076,0,0,0,.081.033l1.215-.27a.074.074,0,0,0,.043-.116l-.389-.567a.073.073,0,0,0-.076-.029l-1.172.266a.073.073,0,0,0-.057.107Z" transform="translate(-540.494 -460.642)"/><path d="M553.683,460.077l.356.577a.076.076,0,0,0,.081.033l1.215-.271a.073.073,0,0,0,.043-.116l-.4-.558a.074.074,0,0,0-.076-.028l-1.172.252a.074.074,0,0,0-.048.112Z" transform="translate(-545.609 -456.706)"/><path d="M572,456.116l.5.536a.066.066,0,0,0,.057.017l1.084-.252a.059.059,0,0,0,.028-.1l-.567-.536a.064.064,0,0,0-.057-.014l-1.02.252a.059.059,0,0,0-.028.1Z" transform="translate(-559.579 -453.694)"/><path d="M577.871,454.757l.505.536a.057.057,0,0,0,.057.017l1.084-.251a.057.057,0,0,0,.026-.1l-.567-.539a.069.069,0,0,0-.057-.014l-1.02.251a.062.062,0,0,0-.028.1Z" transform="translate(-564.055 -452.658)"/><path d="M572.132,459.767l.505.536a.057.057,0,0,0,.057.017l1.084-.249a.059.059,0,0,0,.028-.1l-.569-.536a.059.059,0,0,0-.055-.017l-1.02.254a.059.059,0,0,0-.031.1Z" transform="translate(-559.678 -456.479)"/><path d="M566.1,461.131l.475.513a.073.073,0,0,0,.071.021l1.051-.237a.076.076,0,0,0,.033-.128l-.543-.513a.071.071,0,0,0-.069-.017l-.987.237a.076.076,0,0,0-.031.123Z" transform="translate(-555.077 -457.512)"/><path d="M570.675,467.945l.475.512a.078.078,0,0,0,.071.021l1.051-.237a.073.073,0,0,0,.033-.126l-.543-.513a.078.078,0,0,0-.069-.019l-.987.237a.076.076,0,0,0-.031.123Z" transform="translate(-558.563 -462.71)"/><path d="M564.4,469.365l.474.512a.078.078,0,0,0,.071.021l1.049-.237a.074.074,0,0,0,.036-.126l-.543-.512a.076.076,0,0,0-.069-.019l-.989.237a.076.076,0,0,0-.028.123Z" transform="translate(-553.779 -463.792)"/><path d="M558.028,470.932l.475.512a.074.074,0,0,0,.071.021l1.051-.237a.076.076,0,0,0,.033-.128l-.543-.512a.071.071,0,0,0-.069-.017l-.987.237a.073.073,0,0,0-.031.123Z" transform="translate(-548.915 -464.987)"/><path d="M551.288,472.279l.489.52a.072.072,0,0,0,.067.021l1.06-.237a.069.069,0,0,0,.033-.119l-.55-.524a.069.069,0,0,0-.064-.017l-1,.237a.066.066,0,0,0-.036.119Z" transform="translate(-543.771 -466.019)"/><path d="M564.318,465.4l.474.512a.076.076,0,0,0,.071.021l1.049-.237a.074.074,0,0,0,.036-.126l-.541-.52a.076.076,0,0,0-.069-.019l-.99.237a.074.074,0,0,0-.031.13Z" transform="translate(-553.708 -460.764)"/><path d="M558.212,466.824l.474.51a.069.069,0,0,0,.071.021l1.051-.237a.074.074,0,0,0,.033-.126l-.543-.512a.066.066,0,0,0-.069-.019l-.987.237a.073.073,0,0,0-.031.126Z" transform="translate(-549.054 -461.851)"/><path d="M551.667,468.222l.474.512a.074.074,0,0,0,.071.021l1.049-.237a.076.076,0,0,0,.036-.128l-.543-.512a.073.073,0,0,0-.069-.017l-.99.237a.074.074,0,0,0-.028.123Z" transform="translate(-544.063 -462.92)"/><path d="M544.942,469.857l.489.52a.081.081,0,0,0,.069.019l1.061-.237a.069.069,0,0,0,.031-.119l-.551-.52a.071.071,0,0,0-.064-.017l-1,.237a.071.071,0,0,0-.036.116Z" transform="translate(-538.937 -464.173)"/><path d="M570.643,463.942l.475.51a.073.073,0,0,0,.071.024l1.049-.237a.074.074,0,0,0,.036-.126l-.543-.512a.069.069,0,0,0-.069-.019l-.99.237a.076.076,0,0,0-.028.123Z" transform="translate(-558.538 -459.656)"/><path d="M559.927,462.715l.474.513a.076.076,0,0,0,.071.021l1.049-.237a.074.074,0,0,0,.033-.126l-.541-.512a.076.076,0,0,0-.069-.019l-.989.237a.074.074,0,0,0-.029.123Z" transform="translate(-550.363 -458.72)"/><path d="M583.557,453.4l.529.56a.045.045,0,0,0,.043.014l1.12-.261a.046.046,0,0,0,.033-.032.045.045,0,0,0-.012-.044l-.6-.562a.045.045,0,0,0-.043,0l-1.053.261a.043.043,0,0,0-.021.064Z" transform="translate(-568.398 -451.638)"/><path d="M589.262,452.135l.529.562a.05.05,0,0,0,.043.014l1.12-.261a.045.045,0,0,0,.021-.076l-.593-.562a.04.04,0,0,0-.04,0l-1.056.261a.044.044,0,0,0-.027.025.043.043,0,0,0,0,.036Z" transform="translate(-572.751 -450.677)"/><path d="M595.121,450.93l.475.52a.043.043,0,0,0,.045.014l1.044-.285a.048.048,0,0,0,.017-.078l-.539-.453a.048.048,0,0,0-.038,0l-.989.218a.043.043,0,0,0-.022.029A.043.043,0,0,0,595.121,450.93Z" transform="translate(-577.218 -449.789)"/><path d="M601.265,452.974l.475.522a.047.047,0,0,0,.043.014l1.044-.285a.045.045,0,0,0,.017-.078l-.539-.453a.037.037,0,0,0-.038,0l-.987.216a.045.045,0,0,0-.021.029A.044.044,0,0,0,601.265,452.974Z" transform="translate(-581.905 -451.349)"/><path d="M600.5,456.885l.458.493a.055.055,0,0,0,.059.017l1.006-.273a.059.059,0,0,0,.024-.1l-.51-.432a.059.059,0,0,0-.052-.012l-.949.211a.059.059,0,0,0-.036.1Z" transform="translate(-581.313 -454.312)"/><path d="M595.52,462.027l.458.5a.059.059,0,0,0,.059.017l1.015-.275a.059.059,0,0,0,.024-.1l-.51-.432a.059.059,0,0,0-.052,0l-.949.209a.062.062,0,0,0-.045.088Z" transform="translate(-577.524 -458.241)"/><path d="M589.493,463.56l.458.493a.054.054,0,0,0,.059.017l1.006-.273a.059.059,0,0,0,.024-.1l-.51-.432a.06.06,0,0,0-.052,0l-.949.211a.059.059,0,0,0-.036.088Z" transform="translate(-572.925 -459.408)"/><path d="M601.165,460.479l.458.493a.064.064,0,0,0,.059.019l1.008-.275a.059.059,0,0,0,.021-.1l-.51-.429a.069.069,0,0,0-.052-.014l-.949.211a.062.062,0,0,0-.036.1Z" transform="translate(-581.824 -457.053)"/><path d="M600.159,464.639l.69.622a.071.071,0,0,0,.057,0l1-.282a.059.059,0,0,0,.024-.1l-.745-.652a.054.054,0,0,0-.057,0l-.949.316a.057.057,0,0,0-.019.1Z" transform="translate(-581.051 -460.142)"/><path d="M589.975,455.808l.474.522a.04.04,0,0,0,.043.012l1.044-.285a.043.043,0,0,0,.017-.076l-.539-.456a.042.042,0,0,0-.038,0l-.987.218a.045.045,0,0,0-.021.029A.045.045,0,0,0,589.975,455.808Z" transform="translate(-573.294 -453.51)"/><path d="M584.3,457.139l.458.493a.064.064,0,0,0,.059.019l1.008-.275a.059.059,0,0,0,.043-.045.06.06,0,0,0-.022-.059l-.51-.429a.069.069,0,0,0-.052-.014l-.949.211a.059.059,0,0,0-.036.1Z" transform="translate(-568.957 -454.506)"/><path d="M583.137,461.173l.458.5a.059.059,0,0,0,.059.017l1.006-.275a.059.059,0,0,0,.024-.1l-.512-.432a.059.059,0,0,0-.052-.012l-.949.209a.059.059,0,0,0-.033.1Z" transform="translate(-568.071 -457.584)"/><path d="M577.148,462.623l.458.5a.059.059,0,0,0,.059.017l1.006-.275a.059.059,0,0,0,.024-.1l-.512-.432a.055.055,0,0,0-.05-.012l-.949.209a.059.059,0,0,0-.036.1Z" transform="translate(-563.503 -458.69)"/><path d="M578.224,458.493l.458.5a.054.054,0,0,0,.059.017l1.006-.275a.059.059,0,0,0,.024-.1l-.51-.432a.06.06,0,0,0-.052-.012l-.949.211a.059.059,0,0,0-.036.1Z" transform="translate(-564.325 -455.54)"/><path d="M583.235,464.893l.458.5a.06.06,0,0,0,.059.017l1.006-.275a.059.059,0,0,0,.024-.1l-.51-.432a.06.06,0,0,0-.052-.012l-.949.209a.062.062,0,0,0-.036.1Z" transform="translate(-568.148 -460.421)"/><path d="M577.349,466.442l.434.474a.071.071,0,0,0,.074.021l.97-.263a.076.076,0,0,0,.029-.13l-.475-.408a.069.069,0,0,0-.064-.014l-.921.2a.074.074,0,0,0-.047.119Z" transform="translate(-563.656 -461.593)"/><path d="M595.794,454.323l.475.522a.045.045,0,0,0,.045,0l1.044-.285a.043.043,0,0,0,.017-.076l-.539-.456a.052.052,0,0,0-.038,0l-.987.218a.045.045,0,0,0-.017.076Z" transform="translate(-577.726 -452.368)"/><path d="M594.956,458.25l.458.5a.059.059,0,0,0,.059.017l1.006-.275a.059.059,0,0,0,.024-.1l-.5-.43a.059.059,0,0,0-.052-.012l-.949.209a.059.059,0,0,0-.043.1Z" transform="translate(-577.088 -455.357)"/><path d="M589.218,459.819l.458.494a.062.062,0,0,0,.059.019l1.006-.275a.062.062,0,0,0,.024-.1l-.512-.43a.065.065,0,0,0-.05-.014l-.949.211a.059.059,0,0,0-.036.1Z" transform="translate(-572.709 -456.55)"/><path d="M566.021,457.4l.505.536a.062.062,0,0,0,.057.017l1.084-.252a.059.059,0,0,0,.026-.1l-.567-.536a.062.062,0,0,0-.057-.014l-1.02.252a.062.062,0,0,0-.028.1Z" transform="translate(-555.017 -454.677)"/><path d="M559.935,458.832l.475.513a.074.074,0,0,0,.071.021l1.051-.237a.076.076,0,0,0,.033-.128l-.543-.512a.071.071,0,0,0-.069-.017l-.987.237a.076.076,0,0,0-.031.123Z" transform="translate(-550.371 -455.757)"/><path d="M553.387,463.923l.358.574a.074.074,0,0,0,.081.033l1.212-.271a.074.074,0,0,0,.045-.116l-.4-.555a.08.08,0,0,0-.076-.031l-1.186.251a.076.076,0,0,0-.036.114Z" transform="translate(-545.382 -459.638)"/><path d="M519.745,465.1l1.2-.278a.069.069,0,0,1,.071.026l.211.278a.069.069,0,0,1-.04.109l-1.241.289a.069.069,0,0,1-.076-.033l-.169-.289a.069.069,0,0,1,.045-.1Z" transform="translate(-519.69 -460.604)"/><path d="M526.659,463.591l1.186-.278a.067.067,0,0,1,.071.026l.211.275a.071.071,0,0,1-.04.112l-1.241.289a.071.071,0,0,1-.076-.033l-.168-.289a.069.069,0,0,1,.057-.1Z" transform="translate(-524.956 -459.451)"/><path d="M533.37,462.107l1.186-.275a.067.067,0,0,1,.071.024l.211.278a.069.069,0,0,1-.04.109l-1.241.289a.069.069,0,0,1-.076-.033l-.168-.287a.071.071,0,0,1,.057-.1Z" transform="translate(-530.075 -458.321)"/><path d="M539.967,460.658l1.186-.275a.066.066,0,0,1,.071.026l.211.275a.071.071,0,0,1-.04.112l-1.217.287a.066.066,0,0,1-.076-.031l-.168-.289a.071.071,0,0,1,.033-.1Z" transform="translate(-535.122 -457.216)"/><path d="M546.571,459.191l1.186-.275a.078.078,0,0,1,.076.028l.2.268a.076.076,0,0,1-.043.119l-1.231.287a.076.076,0,0,1-.081-.036l-.164-.28a.076.076,0,0,1,.052-.112Z" transform="translate(-540.147 -456.098)"/><path d="M553.024,457.847l1.186-.275a.071.071,0,0,1,.076.026l.2.268a.076.076,0,0,1-.043.119l-1.231.287a.076.076,0,0,1-.081-.036l-.166-.28a.074.074,0,0,1,.054-.109Z" transform="translate(-545.067 -455.072)"/><path d="M559.349,456.558l1.1-.266a.071.071,0,0,1,.071.021l.214.223a.074.074,0,0,1-.036.123l-1.087.273a.069.069,0,0,1-.069-.019l-.237-.237a.076.076,0,0,1,.045-.119Z" transform="translate(-549.894 -454.096)"/><path d="M565.539,455.109l1.132-.275a.057.057,0,0,1,.057.017l.237.249a.057.057,0,0,1-.028.1l-1.117.282a.062.062,0,0,1-.057-.017l-.249-.254a.059.059,0,0,1,.026-.1Z" transform="translate(-554.628 -452.984)"/><path d="M571.646,453.677l1.132-.275a.052.052,0,0,1,.057.017l.237.237a.062.062,0,0,1-.028.1l-1.113.292a.064.064,0,0,1-.057-.017l-.256-.252a.059.059,0,0,1,.028-.1Z" transform="translate(-559.283 -451.891)"/><path d="M577.8,452.421l1.132-.275a.062.062,0,0,1,.057.017l.237.237a.062.062,0,0,1-.028.1l-1.118.28a.062.062,0,0,1-.059-.017l-.249-.251a.062.062,0,0,1,.029-.09Z" transform="translate(-563.982 -450.934)"/><path d="M583.576,450.994l1.167-.282a.043.043,0,0,1,.043,0l.259.273a.043.043,0,0,1-.021.073l-1.144.3a.041.041,0,0,1-.043,0l-.275-.278a.045.045,0,0,1,.014-.088Z" transform="translate(-568.384 -449.837)"/><path d="M589.462,449.753l1.167-.285a.049.049,0,0,1,.043.014l.261.273a.045.045,0,0,1-.021.074l-1.153.289a.043.043,0,0,1-.043,0l-.275-.287a.045.045,0,0,1,.021-.078Z" transform="translate(-572.88 -448.892)"/><path d="M595.253,448.564l1.077-.237a.045.045,0,0,1,.045.017l.209.256a.043.043,0,0,1-.024.069l-1.013.268a.04.04,0,0,1-.043-.012l-.275-.278a.043.043,0,0,1,.024-.083Z" transform="translate(-577.283 -448.022)"/><path d="M600.813,447.282l1.079-.237a.043.043,0,0,1,.045.014l.209.256a.045.045,0,0,1,.007.042.045.045,0,0,1-.031.029l-1.013.268a.053.053,0,0,1-.043,0l-.275-.28a.047.047,0,1,1,.021-.093Z" transform="translate(-581.522 -447.043)"/><path d="M523.442,470.085l.4.567a.069.069,0,0,0,.074.028l2.076-.474a.069.069,0,0,0,.038-.109l-.439-.581a.071.071,0,0,0-.074-.024l-2.031.5a.073.073,0,0,0-.043.1Z" transform="translate(-522.548 -464.164)"/><path d="M526.075,473.026l.4.631a.067.067,0,0,0,.074.031l2.508-.6a.069.069,0,0,0,.038-.112l-.5-.615a.069.069,0,0,0-.071-.024l-2.408.579a.069.069,0,0,0-.043.1Z" transform="translate(-524.552 -466.339)"/><path d="M528.443,475.754l.474.686a.069.069,0,0,0,.074.028l3.322-.821a.071.071,0,0,0,.04-.111l-.536-.686a.069.069,0,0,0-.071-.026l-3.284.823a.069.069,0,0,0-.019.107Z" transform="translate(-526.353 -468.231)"/><path d="M560.494,469.3l.607.733a.076.076,0,0,0,.076.024l7.307-1.825a.071.071,0,0,0,.033-.123l-.745-.743a.071.071,0,0,0-.071-.019l-7.17,1.834a.073.073,0,0,0-.038.119Z" transform="translate(-550.8 -462.53)"/><path d="M592.26,465.956l.712.712a.062.062,0,0,0,.059.017l1.5-.4a.059.059,0,0,0,.026-.1l-.743-.728a.055.055,0,0,0-.057-.014l-1.471.406a.059.059,0,0,0-.024.109Z" transform="translate(-575.021 -461.074)"/><path d="M607.579,464.449l.325.346a.043.043,0,0,0,.043.012l1.11-.3a.043.043,0,0,0,.019-.073l-.4-.373a.045.045,0,0,0-.043,0l-1.039.325a.043.043,0,0,0-.024.026A.044.044,0,0,0,607.579,464.449Z" transform="translate(-586.722 -460.021)"/><path d="M611.559,461.455l.389.408a.04.04,0,0,0,.045.012l1.018-.354a.043.043,0,0,0,.017-.074l-.38-.344a.048.048,0,0,0-.043,0l-1.027.287a.045.045,0,0,0-.019.064Z" transform="translate(-589.757 -457.764)"/><path d="M613.791,463.421l-.28-.237a.045.045,0,0,1,.014-.076l1.013-.351a.043.043,0,0,1,.048,0l.315.306a.045.045,0,0,1-.019.076l-1.053.273A.048.048,0,0,1,613.791,463.421Z" transform="translate(-591.24 -459.023)"/><path d="M619.1,461.7c.088.083.237.251.3.308a.045.045,0,0,0,.043.012l1.056-.287a.045.045,0,0,0,.019-.076l-.375-.337a.04.04,0,0,0-.043,0l-.982.316a.043.043,0,0,0-.019.064Z" transform="translate(-595.505 -457.928)"/><path d="M606.588,457.578l.567.546a.038.038,0,0,0,.04.012l2.726-.712a.043.043,0,0,0,.017-.076l-.652-.555a.04.04,0,0,0-.04,0l-2.629.712a.043.043,0,0,0-.029.074Z" transform="translate(-585.961 -454.475)"/><path d="M605.825,454.652l.584.52a.051.051,0,0,0,.041,0l2.05-.474a.045.045,0,0,0,.019-.078l-.672-.562a.049.049,0,0,0-.04,0l-1.962.529a.045.045,0,0,0-.019.066Z" transform="translate(-585.383 -452.389)"/><path d="M606.572,451.549l.553.493a.042.042,0,0,0,.04,0l1.051-.237a.047.047,0,0,0,.021-.078l-.655-.565a.045.045,0,0,0-.043,0l-.949.3a.045.045,0,0,0-.019.083Z" transform="translate(-585.942 -450.181)"/><path d="M600.519,449.056l.536.486a.047.047,0,0,0,.04,0l1.661-.4a.045.045,0,0,0,.032-.032.045.045,0,0,0-.012-.043l-.638-.534a.049.049,0,0,0-.04,0l-1.566.444a.045.045,0,0,0-.012.076Z" transform="translate(-581.33 -448.179)"/></g><path class="p" d="M521.2,466.5l.363.584a.071.071,0,0,0,.073.031l1.227-.273a.071.071,0,0,0,.04-.109l-.406-.565a.074.074,0,0,0-.071-.029l-1.186.254a.071.071,0,0,0-.04.107Z" transform="translate(-419.719 -370.991)"/><path class="p" d="M527.964,465.082l.361.584a.071.071,0,0,0,.076.031l1.224-.273a.069.069,0,0,0,.04-.109l-.4-.565a.069.069,0,0,0-.071-.026l-1.186.254a.069.069,0,0,0-.04.1Z" transform="translate(-424.875 -369.913)"/><path class="p" d="M534.5,463.662l.363.584a.066.066,0,0,0,.074.031l1.227-.273a.069.069,0,0,0,.04-.107l-.408-.567a.069.069,0,0,0-.071-.026l-1.186.254a.069.069,0,0,0-.045.043A.068.068,0,0,0,534.5,463.662Z" transform="translate(-429.862 -368.83)"/><path class="p" d="M540.95,462.233l.358.577a.074.074,0,0,0,.081.033l1.215-.27a.076.076,0,0,0,.043-.116l-.4-.56a.074.074,0,0,0-.076-.031l-1.186.252a.076.076,0,0,0-.031.116Z" transform="translate(-434.776 -367.733)"/><path class="p" d="M540.434,466.024l.363.586a.074.074,0,0,0,.074.031l1.224-.273a.069.069,0,0,0,.04-.109l-.4-.565a.071.071,0,0,0-.071-.028l-1.186.254a.069.069,0,0,0-.04.1Z" transform="translate(-434.386 -370.632)"/><path class="p" d="M533.748,467.443l.363.584a.076.076,0,0,0,.076.033l1.224-.273a.069.069,0,0,0,.04-.109l-.406-.565a.069.069,0,0,0-.071-.029l-1.186.254a.071.071,0,0,0-.04.1Z" transform="translate(-429.288 -371.714)"/><path class="p" d="M538.094,470.471l.363.584a.069.069,0,0,0,.076.031l1.224-.273a.069.069,0,0,0,.04-.109l-.406-.565a.067.067,0,0,0-.071-.026l-1.186.251a.071.071,0,0,0-.04.107Z" transform="translate(-432.602 -374.023)"/><path class="p" d="M544.244,473.114l.363.586a.069.069,0,0,0,.074.031l1.224-.273a.071.071,0,0,0,.043-.109l-.406-.565a.071.071,0,0,0-.071-.028l-1.186.254a.069.069,0,0,0-.04.1Z" transform="translate(-437.292 -376.04)"/><path class="p" d="M545.3,477.142l.586.733a.069.069,0,0,0,.071.024l1.234-.32a.071.071,0,0,0,.038-.112l-.607-.74a.069.069,0,0,0-.071-.024l-1.215.327a.071.071,0,0,0-.036.111Z" transform="translate(-438.097 -379.05)"/><path class="p" d="M552.1,475.1l.6.757a.069.069,0,0,0,.071.024l1.611-.446a.071.071,0,0,0,.036-.112l-.607-.74a.069.069,0,0,0-.071-.024l-1.6.432a.069.069,0,0,0-.038.109Z" transform="translate(-443.285 -377.417)"/><path class="p" d="M538.652,478.782l.586.733a.069.069,0,0,0,.071.024l1.234-.32a.072.072,0,0,0,.049-.046.071.071,0,0,0-.011-.066l-.607-.74a.069.069,0,0,0-.071-.024l-1.215.327a.071.071,0,0,0-.036.112Z" transform="translate(-433.025 -380.301)"/><path class="p" d="M531.622,480.59l.586.735a.069.069,0,0,0,.071.024l1.234-.32a.071.071,0,0,0,.038-.112l-.6-.74a.074.074,0,0,0-.073-.024l-1.215.327a.069.069,0,0,0-.036.109Z" transform="translate(-427.663 -381.681)"/><path class="p" d="M547.413,460.737l.356.577a.076.076,0,0,0,.081.033l1.215-.271a.074.074,0,0,0,.043-.116l-.4-.558a.074.074,0,0,0-.076-.029l-1.172.252a.074.074,0,0,0-.047.112Z" transform="translate(-439.71 -366.595)"/><path class="p" d="M546.963,464.518l.356.577a.076.076,0,0,0,.081.033l1.215-.27a.074.074,0,0,0,.043-.116l-.4-.555a.074.074,0,0,0-.076-.031l-1.172.252a.073.073,0,0,0-.047.111Z" transform="translate(-439.366 -369.479)"/><path class="p" d="M553.674,459.318l.356.577a.076.076,0,0,0,.081.033l1.215-.27a.074.074,0,0,0,.043-.116l-.4-.558a.076.076,0,0,0-.076-.028l-1.172.247a.074.074,0,0,0-.047.116Z" transform="translate(-444.483 -365.513)"/><path class="p" d="M572,455.356l.5.536a.066.066,0,0,0,.057.017l1.084-.252a.059.059,0,0,0,.028-.1l-.567-.536a.064.064,0,0,0-.057-.014l-1.02.252a.059.059,0,0,0-.028.1Z" transform="translate(-458.462 -362.5)"/><path class="p" d="M577.885,454.02l.505.534a.057.057,0,0,0,.057.019l1.084-.251a.059.059,0,0,0,.033-.1l-.567-.536a.061.061,0,0,0-.057-.014l-1.02.251a.062.062,0,0,0-.035.095Z" transform="translate(-462.952 -361.485)"/><path class="p" d="M572.133,459.015l.505.536a.061.061,0,0,0,.057.017l1.084-.251a.059.059,0,0,0,.028-.1l-.569-.536a.057.057,0,0,0-.055-.014l-1.02.251a.062.062,0,0,0-.031.1Z" transform="translate(-458.562 -365.291)"/><path class="p" d="M566.092,460.374l.474.51a.073.073,0,0,0,.071.021l1.051-.237a.074.074,0,0,0,.033-.126l-.543-.512a.066.066,0,0,0-.069-.019l-.987.237a.073.073,0,0,0-.031.126Z" transform="translate(-453.947 -366.317)"/><path class="p" d="M570.675,467.182l.475.512a.073.073,0,0,0,.071.021l1.051-.237a.076.076,0,0,0,.033-.128l-.543-.513a.071.071,0,0,0-.069-.017l-.987.237a.076.076,0,0,0-.031.123Z" transform="translate(-457.446 -371.512)"/><path class="p" d="M564.4,468.606l.474.512a.078.078,0,0,0,.071.021L566,468.9a.074.074,0,0,0,.036-.126l-.543-.512a.081.081,0,0,0-.069-.019l-.989.237a.076.076,0,0,0-.028.123Z" transform="translate(-452.661 -372.599)"/><path class="p" d="M557.963,470.13l.474.513a.081.081,0,0,0,.071.021l1.051-.237a.074.074,0,0,0,.04-.142l-.543-.513a.071.071,0,0,0-.069-.019l-.987.237a.074.074,0,0,0-.038.14Z" transform="translate(-447.733 -373.748)"/><path class="p" d="M551.3,471.531l.489.52a.069.069,0,0,0,.066.019l1.061-.237a.071.071,0,0,0,.033-.119l-.553-.522a.076.076,0,0,0-.064-.017l-1,.237a.069.069,0,0,0-.033.119Z" transform="translate(-442.664 -374.834)"/><path class="p" d="M564.325,464.647l.474.512a.071.071,0,0,0,.071.021l1.049-.237a.076.076,0,0,0,.036-.128l-.541-.517a.073.073,0,0,0-.069-.017l-.99.237a.074.074,0,0,0-.031.128Z" transform="translate(-452.598 -369.575)"/><path class="p" d="M558.225,466.086l.475.512a.078.078,0,0,0,.071.021l1.051-.237a.073.073,0,0,0,.033-.126l-.543-.513a.078.078,0,0,0-.069-.019l-.987.237a.076.076,0,0,0-.031.123Z" transform="translate(-447.95 -370.677)"/><path class="p" d="M551.667,467.472l.474.51a.074.074,0,0,0,.071.024l1.049-.237a.074.074,0,0,0,.036-.126l-.543-.512a.069.069,0,0,0-.069-.019l-.99.237a.074.074,0,0,0-.028.123Z" transform="translate(-442.945 -371.734)"/><path class="p" d="M544.936,469.041l.489.52a.074.074,0,0,0,.069.019l1.061-.237a.071.071,0,0,0,.031-.119l-.551-.52a.071.071,0,0,0-.064-.019l-1,.237a.071.071,0,0,0-.036.119Z" transform="translate(-437.814 -372.935)"/><path class="p" d="M570.643,463.186l.475.512a.078.078,0,0,0,.071.021l1.049-.237a.074.074,0,0,0,.036-.126l-.543-.512a.081.081,0,0,0-.069-.019l-.99.237a.076.076,0,0,0-.028.123Z" transform="translate(-457.421 -368.465)"/><path class="p" d="M559.927,461.956l.474.513a.071.071,0,0,0,.071.021l1.049-.237a.074.074,0,0,0,.033-.126l-.541-.512a.081.081,0,0,0-.069-.019l-.989.237a.074.074,0,0,0-.029.123Z" transform="translate(-449.246 -367.527)"/><path class="p" d="M583.561,452.646l.529.562a.045.045,0,0,0,.043.012l1.12-.259a.045.045,0,0,0,.021-.076l-.6-.562a.047.047,0,0,0-.043,0l-1.053.261a.043.043,0,0,0-.025.026A.042.042,0,0,0,583.561,452.646Z" transform="translate(-467.285 -360.452)"/><path class="p" d="M589.244,451.361l.529.562a.057.057,0,0,0,.043.012l1.12-.259a.045.045,0,0,0,.021-.076l-.593-.562a.043.043,0,0,0-.04-.012l-1.056.261a.045.045,0,0,0-.024.074Z" transform="translate(-471.616 -359.466)"/><path class="p" d="M595.093,450.131l.474.522a.045.045,0,0,0,.045,0l1.044-.285a.045.045,0,0,0,.017-.076l-.539-.456a.047.047,0,0,0-.038,0l-.989.218a.043.043,0,0,0-.014.076Z" transform="translate(-476.072 -358.557)"/><path class="p" d="M601.285,452.256l.474.522a.04.04,0,0,0,.043.012l1.044-.285a.043.043,0,0,0,.016-.076l-.529-.444a.043.043,0,0,0-.038,0l-.987.218A.045.045,0,0,0,601.285,452.256Z" transform="translate(-480.808 -360.195)"/><path class="p" d="M600.505,456.129l.458.5a.067.067,0,0,0,.059.017l1.006-.275a.059.059,0,0,0,.024-.1l-.51-.429a.069.069,0,0,0-.052-.014l-.949.211a.062.062,0,0,0-.036.1Z" transform="translate(-480.203 -363.121)"/><path class="p" d="M595.517,461.241l.458.5a.054.054,0,0,0,.059.017l1.016-.275a.059.059,0,0,0,.024-.1l-.52-.42a.06.06,0,0,0-.052-.012l-.949.211a.059.059,0,0,0-.036.085Z" transform="translate(-476.404 -367.03)"/><path class="p" d="M589.475,462.779l.458.5a.066.066,0,0,0,.059.017l1.006-.275a.059.059,0,0,0,.024-.1l-.51-.429a.069.069,0,0,0-.052-.014l-.949.211a.062.062,0,0,0-.036.1Z" transform="translate(-471.79 -368.193)"/><path class="p" d="M601.165,459.723l.458.5a.057.057,0,0,0,.059.017l1.008-.275a.059.059,0,0,0,.021-.1l-.51-.432a.059.059,0,0,0-.052-.012l-.949.209a.062.062,0,0,0-.036.1Z" transform="translate(-480.707 -365.863)"/><path class="p" d="M600.187,463.9l.69.619a.057.057,0,0,0,.057.012l1-.282a.059.059,0,0,0,.024-.1l-.745-.652a.054.054,0,0,0-.057,0l-.949.316a.059.059,0,0,0-.019.09Z" transform="translate(-479.962 -368.97)"/><path class="p" d="M589.975,455.084l.474.522a.045.045,0,0,0,.043.014l1.044-.285a.045.045,0,0,0,.017-.078l-.539-.453a.038.038,0,0,0-.038,0l-.987.216a.045.045,0,0,0-.021.029A.044.044,0,0,0,589.975,455.084Z" transform="translate(-472.176 -362.344)"/><path class="p" d="M584.3,456.383l.458.5a.062.062,0,0,0,.059.017l1.008-.275a.059.059,0,0,0,.021-.1l-.51-.432a.059.059,0,0,0-.052-.012l-.949.209a.062.062,0,0,0-.036.1Z" transform="translate(-467.847 -363.316)"/><path class="p" d="M583.137,460.415l.458.494a.055.055,0,0,0,.059.017l1.006-.273a.062.062,0,0,0,.024-.1l-.512-.432a.059.059,0,0,0-.052-.012l-.949.211a.059.059,0,0,0-.033.1Z" transform="translate(-466.954 -366.39)"/><path class="p" d="M577.148,461.865l.458.494a.055.055,0,0,0,.059.017l1.006-.273a.062.062,0,0,0,.024-.1l-.512-.432a.055.055,0,0,0-.05-.012l-.949.211a.059.059,0,0,0-.036.1Z" transform="translate(-462.386 -367.496)"/><path class="p" d="M578.218,457.739l.458.493a.054.054,0,0,0,.059.017l1.006-.273a.062.062,0,0,0,.024-.1l-.51-.429a.069.069,0,0,0-.052-.014l-.949.211a.059.059,0,0,0-.036.1Z" transform="translate(-463.202 -364.349)"/><path class="p" d="M583.234,464.133l.458.5a.055.055,0,0,0,.059.017l1.006-.273a.059.059,0,0,0,.024-.1l-.51-.432a.059.059,0,0,0-.052-.012l-.949.211a.059.059,0,0,0-.036.1Z" transform="translate(-467.029 -369.227)"/><path class="p" d="M577.349,465.686l.434.474a.078.078,0,0,0,.074.021l.97-.266a.073.073,0,0,0,.029-.128l-.474-.408a.069.069,0,0,0-.064-.017l-.921.2a.074.074,0,0,0-.047.119Z" transform="translate(-462.539 -370.401)"/><path class="p" d="M595.818,453.6l.475.522a.047.047,0,0,0,.045.014l1.044-.285a.045.045,0,0,0,.017-.078l-.539-.453a.037.037,0,0,0-.038,0l-.987.218a.043.043,0,0,0-.017.062Z" transform="translate(-476.633 -361.215)"/><path class="p" d="M594.945,457.483l.458.5a.054.054,0,0,0,.059.017l1.006-.273a.062.062,0,0,0,.024-.1l-.512-.432a.059.059,0,0,0-.052-.012l-.949.211a.057.057,0,0,0-.033.1Z" transform="translate(-475.96 -364.155)"/><path class="p" d="M589.225,459.063l.458.5a.059.059,0,0,0,.059.017l1.006-.275a.059.059,0,0,0,.024-.1l-.512-.432a.055.055,0,0,0-.05-.012l-.949.209a.062.062,0,0,0-.036.1Z" transform="translate(-471.599 -365.36)"/><path class="p" d="M565.992,456.617l.505.527a.057.057,0,0,0,.057.017l1.084-.249a.059.059,0,0,0,.026-.1l-.567-.536a.064.064,0,0,0-.057-.017l-1.02.254a.059.059,0,0,0-.028.107Z" transform="translate(-453.871 -363.455)"/><path class="p" d="M559.922,458.1l.474.51a.069.069,0,0,0,.071.021l1.051-.237a.074.074,0,0,0,.033-.126l-.543-.513a.067.067,0,0,0-.069-.019l-.987.237a.074.074,0,0,0-.031.126Z" transform="translate(-449.241 -364.586)"/><path class="p" d="M553.387,463.167l.358.577a.076.076,0,0,0,.081.033l1.212-.27a.076.076,0,0,0,.045-.116l-.4-.558a.074.074,0,0,0-.076-.028l-1.186.252a.074.074,0,0,0-.036.111Z" transform="translate(-444.265 -368.449)"/><path class="p" d="M519.755,464.343l1.2-.278a.074.074,0,0,1,.071.026l.211.278a.069.069,0,0,1-.04.109l-1.241.282a.069.069,0,0,1-.076-.033l-.169-.287a.071.071,0,0,1,.045-.1Z" transform="translate(-418.584 -369.411)"/><path class="p" d="M526.659,462.833l1.186-.278a.074.074,0,0,1,.071.026l.211.278a.069.069,0,0,1-.04.109l-1.241.289a.069.069,0,0,1-.076-.033l-.168-.289a.069.069,0,0,1,.057-.1Z" transform="translate(-423.839 -368.26)"/><path class="p" d="M533.369,461.392l1.186-.278a.069.069,0,0,1,.071.026l.211.275a.071.071,0,0,1-.04.112l-1.241.289a.071.071,0,0,1-.076-.033l-.168-.289a.069.069,0,0,1,.057-.1Z" transform="translate(-428.957 -367.16)"/><path class="p" d="M539.967,459.9l1.186-.278a.069.069,0,0,1,.071.026l.211.278a.071.071,0,0,1-.04.109l-1.217.289a.069.069,0,0,1-.076-.033l-.168-.289a.069.069,0,0,1,.033-.1Z" transform="translate(-434.005 -366.023)"/><path class="p" d="M546.575,458.44l1.186-.275a.078.078,0,0,1,.076.026l.2.271a.074.074,0,0,1-.043.116l-1.231.287a.076.076,0,0,1-.081-.036l-.164-.28a.076.076,0,0,1,.052-.109Z" transform="translate(-439.033 -364.91)"/><path class="p" d="M553.038,457.109l1.186-.275a.074.074,0,0,1,.076.028l.2.268a.074.074,0,0,1-.043.116l-1.231.287a.076.076,0,0,1-.081-.036l-.161-.28a.074.074,0,0,1,.05-.109Z" transform="translate(-443.963 -363.895)"/><path class="p" d="M559.348,455.8l1.1-.268a.076.076,0,0,1,.071.021l.214.225a.071.071,0,0,1-.036.121l-1.087.273a.069.069,0,0,1-.069-.019l-.237-.237a.073.073,0,0,1,.045-.116Z" transform="translate(-448.776 -362.904)"/><path class="p" d="M565.564,454.361l1.132-.275a.064.064,0,0,1,.057.017l.237.237a.059.059,0,0,1-.028.1l-1.118.28a.057.057,0,0,1-.057-.017l-.249-.254a.06.06,0,0,1,.026-.088Z" transform="translate(-453.535 -361.8)"/><path class="p" d="M571.671,452.921l1.132-.275a.062.062,0,0,1,.057.017l.237.237a.062.062,0,0,1-.028.1l-1.113.292a.057.057,0,0,1-.057-.017l-.249-.254a.059.059,0,0,1,.021-.1Z" transform="translate(-458.19 -360.701)"/><path class="p" d="M577.759,451.669l1.132-.275a.057.057,0,0,1,.057.017l.237.237a.062.062,0,0,1-.028.1l-1.117.282a.069.069,0,0,1-.059-.017l-.249-.24a.059.059,0,0,1,.028-.1Z" transform="translate(-462.826 -359.745)"/><path class="p" d="M583.592,450.236l1.167-.285a.043.043,0,0,1,.043,0l.259.275a.045.045,0,0,1-.021.073l-1.144.3a.055.055,0,0,1-.043,0l-.275-.28a.045.045,0,0,1,.014-.085Z" transform="translate(-467.283 -358.643)"/><path class="p" d="M589.492,448.984l1.167-.282a.043.043,0,0,1,.043,0l.261.273a.043.043,0,0,1-.021.074l-1.153.289a.043.043,0,0,1-.043-.012l-.275-.278a.045.045,0,0,1,.021-.064Z" transform="translate(-471.793 -357.689)"/><path class="p" d="M595.278,447.8l1.077-.237a.04.04,0,0,1,.045.014l.209.256a.045.045,0,0,1-.024.071l-1.013.268a.055.055,0,0,1-.043-.012l-.275-.28a.043.043,0,0,1,.024-.081Z" transform="translate(-476.191 -356.824)"/><path class="p" d="M600.864,446.524l1.08-.237a.048.048,0,0,1,.045.014l.209.256a.045.045,0,0,1-.024.071l-1.013.268a.04.04,0,0,1-.043-.012l-.275-.278a.045.045,0,0,1,.021-.083Z" transform="translate(-480.456 -355.851)"/><path class="p" d="M523.442,469.346l.4.567a.069.069,0,0,0,.074.029l2.076-.475a.069.069,0,0,0,.038-.109l-.439-.579a.069.069,0,0,0-.074-.026l-2.031.5a.071.071,0,0,0-.043.095Z" transform="translate(-421.431 -372.986)"/><path class="p" d="M526.06,472.268l.4.633a.069.069,0,0,0,.074.031l2.508-.6a.069.069,0,0,0,.038-.112l-.5-.614a.073.073,0,0,0-.071-.024l-2.408.572a.069.069,0,0,0-.043.112Z" transform="translate(-423.42 -375.146)"/><path class="p" d="M528.443,475l.474.686a.069.069,0,0,0,.074.026l3.322-.821a.069.069,0,0,0,.04-.109l-.536-.688a.069.069,0,0,0-.071-.024l-3.284.821a.071.071,0,0,0-.019.109Z" transform="translate(-425.236 -377.044)"/><path class="p" d="M560.495,468.55l.607.731a.076.076,0,0,0,.076.024l7.308-1.822a.074.074,0,0,0,.033-.126l-.745-.74a.078.078,0,0,0-.071-.021l-7.17,1.834a.076.076,0,0,0-.038.121Z" transform="translate(-449.683 -371.34)"/><path class="p" d="M592.26,465.2l.712.712a.062.062,0,0,0,.059.014l1.5-.4a.059.059,0,0,0,.026-.1l-.743-.726a.057.057,0,0,0-.057-.017l-1.471.408a.059.059,0,0,0-.024.109Z" transform="translate(-473.904 -369.882)"/><path class="p" d="M607.49,463.674l.325.344a.043.043,0,0,0,.043,0l1.11-.3a.045.045,0,0,0,.019-.076l-.4-.37a.04.04,0,0,0-.043-.012l-1.039.325a.044.044,0,0,0-.019.086Z" transform="translate(-485.515 -368.799)"/><path class="p" d="M611.512,460.649l.389.408a.041.041,0,0,0,.045,0l1.018-.351a.045.045,0,0,0,.017-.076l-.38-.342a.048.048,0,0,0-.043-.012l-1.027.289a.045.045,0,0,0-.019.083Z" transform="translate(-488.593 -366.521)"/><path class="p" d="M613.785,462.694l-.28-.225a.045.045,0,0,1,.014-.078l1.013-.351a.047.047,0,0,1,.047,0l.316.308a.043.043,0,0,1-.019.074l-1.054.273A.047.047,0,0,1,613.785,462.694Z" transform="translate(-490.116 -367.862)"/><path class="p" d="M619.076,460.905c.088.085.237.252.3.308a.04.04,0,0,0,.043,0l1.056-.287a.043.043,0,0,0,.019-.074l-.375-.339a.047.047,0,0,0-.043,0l-.982.316a.045.045,0,0,0-.019.076Z" transform="translate(-494.368 -366.699)"/><path class="p" d="M606.579,456.814l.567.546a.041.041,0,0,0,.04,0l2.726-.712a.045.045,0,0,0,.017-.078l-.662-.546a.043.043,0,0,0-.04,0l-2.629.712a.045.045,0,0,0-.019.078Z" transform="translate(-484.834 -363.275)"/><path class="p" d="M605.825,453.9l.584.52a.043.043,0,0,0,.04,0l2.05-.475a.045.045,0,0,0,.019-.078l-.671-.56a.043.043,0,0,0-.04,0l-1.962.527a.045.045,0,0,0-.019.066Z" transform="translate(-484.266 -361.2)"/><path class="p" d="M606.611,450.833l.553.494a.052.052,0,0,0,.04.012l1.051-.237a.045.045,0,0,0,.021-.076l-.655-.565a.041.041,0,0,0-.043,0l-.949.306a.043.043,0,0,0-.019.066Z" transform="translate(-484.864 -359.03)"/><path class="p" d="M600.443,448.274l.536.474a.04.04,0,0,0,.04,0l1.661-.394a.045.045,0,0,0,.019-.078l-.638-.534a.041.041,0,0,0-.04,0l-1.566.441a.045.045,0,0,0-.012.09Z" transform="translate(-480.136 -356.958)"/><path class="g" d="M509.112,334.611a47.149,47.149,0,0,0-2.878,3.8,12.016,12.016,0,0,1-1.165,1.554c-.615.648-1.383,1.134-2.012,1.77a11.8,11.8,0,0,0-1.753,2.56,18.754,18.754,0,0,0-.949,1.858,9.393,9.393,0,0,0-.415,6.019c.192.712.577,1.514,1.3,1.682a2.287,2.287,0,0,0,1.637-.474,3.789,3.789,0,0,0,1.4-1.224,3.952,3.952,0,0,0,.408-1.5l.624-4.567a5.27,5.27,0,0,1,.33-1.424,4.122,4.122,0,0,1,1.884-1.827c.781-.429,1.623-.75,2.373-1.238.7-.456,1.3-1.049,2-1.5a25.217,25.217,0,0,0,2.631-1.573,2.342,2.342,0,0,0,.83-2.714,3.166,3.166,0,0,0-.856-.9l-1.526-1.229c-.325-.261-1-1.051-1.407-1.1s-1.032.569-1.307.814A11.548,11.548,0,0,0,509.112,334.611Z" transform="translate(-403.271 -269.113)"/><path class="d" d="M503.376,309.484a5.023,5.023,0,0,1,.949.237c.311.126.6.315.909.434a10.882,10.882,0,0,0,1.236.294,1.661,1.661,0,0,1,1.046.664,3.156,3.156,0,0,0-1.744,1.127,5.273,5.273,0,0,0-.728,1.44,16.189,16.189,0,0,0-.949,4.764.977.977,0,0,0,.214.8c-1.056-.857-2.548-.83-3.905-.769a.972.972,0,0,1-.38-.031.85.85,0,0,1-.335-.275,3.321,3.321,0,0,1-.712-1.594,7.2,7.2,0,0,1,.237-2.517,12.958,12.958,0,0,0,.308-2.437,11.831,11.831,0,0,0-.389-2.3c-.168-.961.9-.489,1.478-.377Z" transform="translate(-402.743 -250.929)"/></g></svg>