<svg xmlns="http://www.w3.org/2000/svg" xmlns:xlink="http://www.w3.org/1999/xlink" width="237" height="172" viewBox="0 0 237 172">
  <defs>
    <clipPath id="clip-path">
      <rect id="Rectangle_1837" data-name="Rectangle 1837" width="237" height="172" transform="translate(6780 -1769)" fill="#fff" stroke="#707070" stroke-width="1"/>
    </clipPath>
  </defs>
  <g id="Mask_Group_49" data-name="Mask Group 49" transform="translate(-6780 1769)" clip-path="url(#clip-path)">
    <g id="Group_2512" data-name="Group 2512" transform="translate(6789.697 -1759.101)">
      <path id="Path_1009" data-name="Path 1009" d="M194.014,623.374l-.27-.1c-.059-.022-5.958-2.282-8.721-7.406s-1.41-11.294-1.4-11.356l.064-.281.27.1c.059.022,5.958,2.282,8.721,7.407s1.41,11.294,1.4,11.356Zm-8.548-7.746c2.336,4.333,7,6.554,8.178,7.061.225-1.266.929-6.384-1.405-10.713s-7-6.552-8.178-7.061c-.225,1.267-.929,6.385,1.405,10.713Z" transform="translate(-161.841 -495.797)" fill="#3f3d56"/>
      <path id="Path_1010" data-name="Path 1010" d="M159.79,644.479c4.966,2.988,6.878,8.922,6.878,8.922s-6.139,1.09-11.1-1.9-6.878-8.922-6.878-8.922S154.825,641.492,159.79,644.479Z" transform="translate(-134.496 -525.956)" fill="#6c63ff"/>
      <ellipse id="Ellipse_251" data-name="Ellipse 251" cx="18.093" cy="4.021" rx="18.093" ry="4.021" transform="translate(161.33 68.604)" fill="#3f3d56"/>
      <rect id="Rectangle_1590" data-name="Rectangle 1590" width="51.331" height="0.502" transform="matrix(0.367, -0.93, 0.93, 0.367, 140.736, 127.312)" fill="#3f3d56"/>
      <rect id="Rectangle_1591" data-name="Rectangle 1591" width="0.502" height="51.331" transform="translate(198.291 79.752) rotate(-21.541)" fill="#3f3d56"/>
      <rect id="Rectangle_1592" data-name="Rectangle 1592" width="0.503" height="47.746" transform="translate(178.921 79.661)" fill="#3f3d56"/>
      <rect id="Rectangle_1593" data-name="Rectangle 1593" width="0.503" height="21.353" transform="matrix(0.447, -0.894, 0.894, 0.447, 156.694, 97.224)" fill="#3f3d56"/>
      <rect id="Rectangle_1594" data-name="Rectangle 1594" width="21.353" height="0.503" transform="matrix(0.894, -0.447, 0.447, 0.894, 182.327, 106.325)" fill="#3f3d56"/>
      <path id="Path_1011" data-name="Path 1011" d="M781.757,280.156s-7.539-7.79-9.549-3.016,7.539,7.287,7.539,7.287Z" transform="translate(-627.086 -236.053)" fill="#ffb8b8"/>
      <path id="Path_1012" data-name="Path 1012" d="M809.561,349.524l-9.8,14.072-10.3,14.324-3.016,41.463,10.3,1.256s-1.508-11.308,1.256-18.093,2.764-19.1,2.764-19.1l17.842-21.611,10.052,17.339,10.806,41.463,9.047-.754s-3.267-19.1-2.764-21.109-5.277-18.847-5.277-18.847l-4.523-32.92S815.341,344,809.561,349.524Z" transform="translate(-638.556 -291.852)" fill="#2f2e41"/>
      <circle id="Ellipse_252" data-name="Ellipse 252" cx="7.221" cy="7.221" r="7.221" transform="translate(168.05 6.088)" fill="#ffb8b8"/>
      <path id="Path_1013" data-name="Path 1013" d="M913.959,161.908l5.277,5.528,1.508,8.544-13.319,2.262,1.005-7.79s-.251-3.769-1.256-4.523S913.959,161.908,913.959,161.908Z" transform="translate(-733.907 -146.202)" fill="#ffb8b8"/>
      <path id="Path_1014" data-name="Path 1014" d="M871.55,236.229" transform="translate(-705.822 -204.942)" fill="none" stroke="lime" stroke-miterlimit="10" stroke-width="1"/>
      <path id="Path_1015" data-name="Path 1015" d="M888.566,192.3l1.224-1.382,4.053,3.644,6.785-6.282,10.3,34.679a18.5,18.5,0,0,0-12.816.754c-6.282,3.016-14.575,2.262-14.575,2.262l.251-28.145Z" transform="translate(-715.299 -167.045)" fill="#575a89"/>
      <path id="Path_1016" data-name="Path 1016" d="M861.38,204.79l8.42-7.7s2.888,4.185,1.632,12.226-2.262,23.873-6.785,28.145-6.282,5.78-6.282,5.78l4.523-18.093S859.37,206.8,861.38,204.79Z" transform="translate(-695.401 -174.006)" fill="#d0cde1"/>
      <path id="Path_1017" data-name="Path 1017" d="M953.553,174s14.975-1.5,15.226.263-1.508,21.863-1.508,21.863,15.58,20.857,9.047,24.878c-3.047,1.875-5.68-2.243-9.423-7.413-4.285-5.917-9.524-13.341-9.926-16.962C956.215,189.843,953.553,174,953.553,174Z" transform="translate(-770.634 -155.29)" fill="#d0cde1"/>
      <path id="Path_1018" data-name="Path 1018" d="M816.658,267.395l-1.256,9.8-11.057-4.775-3.518,7.287,18.093,6.785S822.186,269.154,816.658,267.395Z" transform="translate(-649.924 -229.575)" fill="#d0cde1"/>
      <path id="Path_1019" data-name="Path 1019" d="M725.873,689.342l-7.288,11.811s-13.821,7.539-9.047,9.549,16.334-2.262,17.591-4.775,1.759-3.016,2.262-2.513,6.785-1.508,7.036-2.262,0-9.3-2.262-10.3S725.873,689.342,725.873,689.342Z" transform="translate(-576.981 -563.067)" fill="#2f2e41"/>
      <path id="Path_1020" data-name="Path 1020" d="M1040.57,693.44l1.508,9.3,1.759,6.534s1.256,9.549,7.287,8.8c3.016-.377,4.083-2.513,4.4-4.555a9.119,9.119,0,0,0-1.007-5.648l-3.391-6.382-3.016-8.544Z" transform="translate(-839.409 -565.909)" fill="#2f2e41"/>
      <path id="Path_1021" data-name="Path 1021" d="M878.793,110.04a3.537,3.537,0,0,1-.882-2.386,7.564,7.564,0,0,0-.143-2.255,22.26,22.26,0,0,1,.761-3.43c.453-1.259.071-1.7,2.021-2.384s.708-3.172,6.456-1.191a1.572,1.572,0,0,0,1.71.35c1.061-.389,1.7,1.069,1.7,1.069s.662-.543,1.033.022,2.168-.722,2.826,3.385a12.664,12.664,0,0,1-1.6,7.77s-.317-6.573-4.05-6.692-7.954-1.533-8.477,1.235A20.2,20.2,0,0,1,878.793,110.04Z" transform="translate(-710.736 -95.409)" fill="#2f2e41"/>
      <path id="Path_1022" data-name="Path 1022" d="M985.056,337.017s-9.065,5.945-4.752,8.814,8.572-6.039,8.572-6.039Z" transform="translate(-790.857 -284.602)" fill="#ffb8b8"/>
      <path id="Path_1023" data-name="Path 1023" d="M997.894,176.308a1.979,1.979,0,0,1,3.016,1.256c.754,2.513,8.544,21.863,8.544,21.863l-9.8,15.078-7.036-5.026,8.544-10.052-5.778-7.036Z" transform="translate(-801.509 -157.335)" fill="#d0cde1"/>
      <path id="Path_1024" data-name="Path 1024" d="M703.03,155.591h-.263v-7.207a4.171,4.171,0,0,0-4.171-4.171H683.328a4.171,4.171,0,0,0-4.171,4.171v39.536a4.171,4.171,0,0,0,4.171,4.171H698.6a4.171,4.171,0,0,0,4.171-4.171v-27.2h.263Z" transform="translate(-553.762 -132.216)" fill="#3f3d56"/>
      <path id="Path_1025" data-name="Path 1025" d="M702.633,149.86H700.64a1.48,1.48,0,0,1-1.37,2.039h-8.747a1.48,1.48,0,0,1-1.37-2.039h-1.861a3.115,3.115,0,0,0-3.115,3.115v39.477a3.115,3.115,0,0,0,3.115,3.115h15.341a3.115,3.115,0,0,0,3.115-3.115V152.975A3.115,3.115,0,0,0,702.633,149.86Z" transform="translate(-557.729 -136.68)" fill="#6c63ff"/>
      <path id="Path_1026" data-name="Path 1026" d="M629.678,154.754l3.278,5.677,3.278,5.677H623.122l3.278-5.677Z" transform="translate(-492.493 -122.312)" fill="#3f3d56"/>
      <path id="Path_1027" data-name="Path 1027" d="M643.108,174.36l1.487,2.575,1.487,2.575h-5.947l1.487-2.575Z" transform="translate(-505.939 -137.807)" fill="#d0cde1"/>
      <path id="Path_1028" data-name="Path 1028" d="M643.108,134.413l1.487,2.575,1.487,2.575h-5.947l1.487-2.575Z" transform="translate(-505.939 -106.235)" fill="#d0cde1"/>
      <path id="Path_1029" data-name="Path 1029" d="M185.683,250.708l21.622,37.451,21.622,37.451H142.439l21.622-37.451Z" transform="translate(-112.579 -198.15)" fill="#3f3d56"/>
      <path id="Path_1030" data-name="Path 1030" d="M274.277,380.04l9.809,16.989,9.808,16.989H254.66l9.808-16.989Z" transform="translate(-201.274 -300.369)" fill="#d0cde1"/>
      <path id="Path_1031" data-name="Path 1031" d="M274.277,116.52l9.809,16.989,9.808,16.989H254.66l9.808-16.989Z" transform="translate(-201.274 -92.093)" fill="#d0cde1"/>
      <rect id="Rectangle_1595" data-name="Rectangle 1595" width="140.976" height="0.503" transform="translate(0 127.155)" fill="#3f3d56"/>
      <path id="Path_1032" data-name="Path 1032" d="M270.368,217.749a15.176,15.176,0,0,1-2.39-4.3,15.188,15.188,0,0,1-2.39,4.3l2.139-.774v11.3h.5v-11.3Z" transform="translate(-226.891 -186.941)" fill="#3f3d56"/>
      <path id="Path_1033" data-name="Path 1033" d="M599.414,396.956a15.176,15.176,0,0,1-2.39-4.3,15.189,15.189,0,0,1-2.39,4.3l2.139-.774v11.3h.5v-11.3Z" transform="translate(-486.957 -328.58)" fill="#3f3d56"/>
      <path id="Path_1034" data-name="Path 1034" d="M496.325,91.285a15.176,15.176,0,0,1-2.39-4.3,15.19,15.19,0,0,1-2.39,4.3l2.139-.774v11.3h.5v-11.3Z" transform="translate(-405.48 -86.989)" fill="#3f3d56"/>
    </g>
  </g>
</svg>
