<svg xmlns="http://www.w3.org/2000/svg" width="33.385" height="17.668" viewBox="0 0 33.385 17.668">
  <path id="group" d="M16.7,25.54c1.951,0,3.871-3.172,3.871-6.4,0-3.37-2.107-4.079-3.871-4.079s-3.871.709-3.871,4.079C12.827,22.368,14.741,25.54,16.7,25.54Zm6.489,2.4a17.045,17.045,0,0,1-2.822-1.21c-.5-.271-1.033-.569-1.57-.892a3.241,3.241,0,0,1-4.2,0c-.417.256-.96.574-1.575.892-.287.151-.563.287-.824.412a14.923,14.923,0,0,1-1.993.8c-2.16.673-2.707,3.563-2.838,4.783H26.024C25.889,31.512,25.352,28.623,23.187,27.944Zm3.37-2.89a1.742,1.742,0,0,0,1.137-.5c.016-.01.026-.026.042-.037A5.9,5.9,0,0,0,29.311,20.4c0-2.41-1.5-2.916-2.759-2.916s-2.765.506-2.765,2.916a5.887,5.887,0,0,0,1.591,4.131A1.859,1.859,0,0,0,26.557,25.055Zm4.825,2.066a12.941,12.941,0,0,1-2.139-.913c-.428-.224-.809-.449-1.106-.626a2.689,2.689,0,0,1-1.575.553,2.645,2.645,0,0,1-1.581-.553c-.37.224-.741.438-1.106.626s-.694.349-1.007.485c.224.089.438.156.642.219a5.075,5.075,0,0,1,3.13,3.521h6.745C33.265,29.478,32.837,27.579,31.382,27.12ZM5.691,24.554a1.753,1.753,0,0,0,1.137.5,1.785,1.785,0,0,0,1.163-.511l.021-.021A5.875,5.875,0,0,0,9.593,20.4c0-2.41-1.5-2.916-2.765-2.916s-2.759.506-2.759,2.916a5.889,5.889,0,0,0,1.57,4.116A.456.456,0,0,1,5.691,24.554Zm4.194,2.363c.2-.057.423-.136.642-.219-.313-.141-.647-.3-1.012-.485-.428-.219-.8-.443-1.106-.626a2.677,2.677,0,0,1-1.575.553,2.642,2.642,0,0,1-1.575-.553c-.282.172-.662.4-1.111.626a12.52,12.52,0,0,1-2.128.913C.553,27.579.125,29.478,0,30.438H6.75A5.051,5.051,0,0,1,9.885,26.917Z" transform="translate(0 -15.06)"/>
</svg>
