<svg xmlns="http://www.w3.org/2000/svg" width="87.653" height="118.958" viewBox="0 0 87.653 118.958">
  <g id="Group_2684" data-name="Group 2684" transform="translate(-842.674 -145.676)">
    <path id="Path_960" data-name="Path 960" d="M53.826,79.131a18.744,18.744,0,0,0,18.72-18.783l.063-37.566a18.783,18.783,0,1,0-37.566,0V60.348A18.8,18.8,0,0,0,53.826,79.131Z" transform="translate(832.674 141.676)" fill="#fa0"/>
    <path id="Path_1693" data-name="Path 1693" d="M87.009,60.348c0,18.783-15.871,31.931-33.183,31.931-17.28,0-33.183-13.148-33.183-31.931H10c0,21.381,17.03,39.037,37.566,42.073v20.536H60.087V102.422c20.536-3.037,37.566-20.692,37.566-42.073Z" transform="translate(832.674 141.676)" fill="#fff"/>
  </g>
</svg>
