<svg id="Group_2474" data-name="Group 2474" xmlns="http://www.w3.org/2000/svg" width="64.846" height="58.362" viewBox="0 0 64.846 58.362">
  <ellipse id="Ellipse_255" data-name="Ellipse 255" cx="9.904" cy="9.904" rx="9.904" ry="9.904" transform="translate(22.519 22.519)"/>
  <path id="Path_1680" data-name="Path 1680" d="M60.361,8.485H50.083l-4.02-4.377A6.454,6.454,0,0,0,41.3,2H27.549a6.579,6.579,0,0,0-4.8,2.108L18.763,8.485H8.485A6.5,6.5,0,0,0,2,14.969V53.877a6.5,6.5,0,0,0,6.485,6.485H60.361a6.5,6.5,0,0,0,6.485-6.485V14.969A6.5,6.5,0,0,0,60.361,8.485ZM34.423,50.635A16.212,16.212,0,1,1,50.635,34.423,16.217,16.217,0,0,1,34.423,50.635Z" transform="translate(-2 -2)"/>
</svg>
