<svg id="Group_2474" data-name="Group 2474" xmlns="http://www.w3.org/2000/svg" width="153.93" height="138.537" viewBox="0 0 153.93 138.537">
  <ellipse id="Ellipse_255" data-name="Ellipse 255" cx="23.509" cy="23.509" rx="23.509" ry="23.509" transform="translate(53.455 53.456)" fill="#fa0"/>
  <path id="Path_1680" data-name="Path 1680" d="M140.537,17.393h-24.4L106.6,7A15.321,15.321,0,0,0,95.281,2H62.648A15.617,15.617,0,0,0,51.257,7l-9.467,10.39h-24.4A15.438,15.438,0,0,0,2,32.786v92.358a15.438,15.438,0,0,0,15.393,15.393H140.537a15.438,15.438,0,0,0,15.393-15.393V32.786A15.438,15.438,0,0,0,140.537,17.393ZM78.965,117.448a38.483,38.483,0,1,1,38.482-38.483A38.5,38.5,0,0,1,78.965,117.448Z" transform="translate(-2 -2)" fill="#fff"/>
</svg>
