<svg xmlns="http://www.w3.org/2000/svg" width="23.257" height="28.119" viewBox="0 0 23.257 28.119">
  <path id="Path_1047" data-name="Path 1047" d="M28.257,22.862v1.4a.612.612,0,0,1-.612.612H5.612A.612.612,0,0,1,5,24.257v-1.4a1.738,1.738,0,0,1,1.671-1.738,1.414,1.414,0,0,0,.165-.508v-7.3a9.437,9.437,0,0,1,3.635-7.467,9.566,9.566,0,0,1,8.244-1.726,9.94,9.94,0,0,1,7.093,9.272v7.063a2.087,2.087,0,0,0,.722.667h0A1.738,1.738,0,0,1,28.257,22.862ZM16.335,3.216a10.582,10.582,0,0,1,2.13.233V2.836a1.836,1.836,0,1,0-3.672,0v.5a10.355,10.355,0,0,1,1.542-.122ZM12.393,25.481a4.284,4.284,0,0,0,8.47,0Z" transform="translate(-5 -1)"/>
</svg>
