<svg xmlns="http://www.w3.org/2000/svg" width="200.122" height="145.543" viewBox="0 0 200.122 145.543">
  <path id="Path_1728" data-name="Path 1728" d="M101.061,76.771A36.386,36.386,0,1,0,64.675,40.386,36.386,36.386,0,0,0,101.061,76.771Zm0-54.579A18.193,18.193,0,1,1,82.868,40.386,18.193,18.193,0,0,1,101.061,22.193Zm72.771,63.675a27.287,27.287,0,0,0-24.922,16.186,54.579,54.579,0,0,0-38.753-16.186H91.964A54.579,54.579,0,0,0,53.214,102.06,27.289,27.289,0,0,0,1,113.157v27.289a9.1,9.1,0,0,0,9.1,9.1H192.025a9.1,9.1,0,0,0,9.1-9.1V113.157A27.289,27.289,0,0,0,173.832,85.868ZM19.193,113.157a9.1,9.1,0,0,1,18.193,0V131.35H19.193ZM56.761,131.35a36.386,36.386,0,0,1,35.2-27.289h18.193a36.386,36.386,0,0,1,35.2,27.289Zm126.168,0H164.736V113.157a9.1,9.1,0,0,1,18.193,0Zm-9.1-54.579a27.289,27.289,0,1,0-27.289-27.289A27.289,27.289,0,0,0,173.832,76.771Zm0-36.386a9.1,9.1,0,1,1-9.1,9.1A9.1,9.1,0,0,1,173.832,40.386ZM28.289,76.771A27.289,27.289,0,1,0,1,49.482,27.289,27.289,0,0,0,28.289,76.771Zm0-36.386a9.1,9.1,0,1,1-9.1,9.1A9.1,9.1,0,0,1,28.289,40.386Z" transform="translate(-1 -4)" fill="#fff"/>
</svg>
