<svg xmlns="http://www.w3.org/2000/svg" width="30" height="30" viewBox="0 0 30 30">
  <g id="solution" transform="translate(-1 -1)">
    <path id="Path_1659" data-name="Path 1659" d="M19.427,14.1a1,1,0,0,0-1.331.479,28.337,28.337,0,0,1-1.833,3.151A14.253,14.253,0,0,0,14.125,22H7.876a14.234,14.234,0,0,0-2.139-4.275C4.392,15.625,3,13.455,3,11A8,8,0,0,1,18.169,7.445a1,1,0,0,0,1.791-.889A10,10,0,0,0,1,11c0,3.041,1.622,5.571,3.053,7.8a16.078,16.078,0,0,1,1.769,3.232A.986.986,0,0,0,5,23v4a1,1,0,0,0,1,1,3,3,0,0,0,3,3h4a3,3,0,0,0,3-3,1,1,0,0,0,1-1V23a.986.986,0,0,0-.822-.964A16.051,16.051,0,0,1,17.947,18.8a29.839,29.839,0,0,0,1.959-3.377A1,1,0,0,0,19.427,14.1ZM13,29H9a1,1,0,0,1-1-1h6A1,1,0,0,1,13,29Zm2-3H7V24h8Z"/>
    <path id="Path_1660" data-name="Path 1660" d="M28,8a2.984,2.984,0,0,0-1.116.22A2.993,2.993,0,0,0,21,9a2.938,2.938,0,0,0,.185,1H8a1,1,0,0,0,0,2H9v1a1,1,0,0,0,2,0V12h1v1a1,1,0,0,0,2,0V12h7.184A2.962,2.962,0,0,0,21,13a2.993,2.993,0,0,0,5.884.78A3,3,0,1,0,28,8Zm-4,6a1,1,0,1,1,1-1A1,1,0,0,1,24,14Zm0-4a1,1,0,1,1,1-1A1,1,0,0,1,24,10Zm4,2a1,1,0,1,1,1-1A1,1,0,0,1,28,12Z"/>
  </g>
</svg>
