<svg xmlns="http://www.w3.org/2000/svg" width="174.36" height="174.811" viewBox="0 0 174.36 174.811">
  <g id="Group_2683" data-name="Group 2683" transform="translate(-17.933 -17.48)">
    <path id="Path_1726" data-name="Path 1726" d="M22.978,51.984A8.776,8.776,0,0,0,10.566,64.4L36.788,90.618a8.482,8.482,0,0,0,12.5-.437l61.184-69.924A8.741,8.741,0,0,0,97.36,8.719L42.994,71.651Z" transform="translate(61.893 46.697)" fill="#fa0"/>
    <path id="Path_1727" data-name="Path 1727" d="M167.671,80.665a8.741,8.741,0,0,0-8.741,8.741A69.9,69.9,0,1,1,89.006,19.481,76.83,76.83,0,0,1,105.613,21.4a8.741,8.741,0,1,0,4.108-16.957A92.125,92.125,0,0,0,89.006,2a87.406,87.406,0,1,0,87.406,87.406,8.741,8.741,0,0,0-8.741-8.741Z" transform="translate(15.881 15.48)" fill="#fa0"/>
  </g>
</svg>
