<svg id="Group_312" data-name="Group 312" xmlns="http://www.w3.org/2000/svg" width="23.257" height="23.257" viewBox="0 0 23.257 23.257">
  <path id="Path_1043" data-name="Path 1043" d="M21.931,11.078h-.775V9.528a8.528,8.528,0,1,0-17.055,0v1.55H3.326A2.326,2.326,0,0,0,1,13.4v3.1A2.326,2.326,0,0,0,3.326,18.83H4.1a2.326,2.326,0,0,0,4.651,0V11.078a2.326,2.326,0,0,0-3.1-2.194,6.977,6.977,0,0,1,13.892,0A2.326,2.326,0,0,0,16.5,11.078V18.83a2.326,2.326,0,0,0,3.1,2.186v1.69H17.2a3.752,3.752,0,0,1-.7,1.55h3.876a.775.775,0,0,0,.775-.775V18.83h.775A2.326,2.326,0,0,0,24.257,16.5V13.4A2.326,2.326,0,0,0,21.931,11.078Z" transform="translate(-1 -1)"/>
  <path id="Path_1044" data-name="Path 1044" d="M15.876,25h-1.55a2.326,2.326,0,0,0,0,4.651h1.55a2.326,2.326,0,1,0,0-4.651Z" transform="translate(-3.472 -6.394)"/>
</svg>
