<svg xmlns="http://www.w3.org/2000/svg" width="23.257" height="23.257" viewBox="0 0 23.257 23.257">
  <path id="Path_1045" data-name="Path 1045" d="M11.629,13.954a1.454,1.454,0,1,0,1.454,1.454A1.454,1.454,0,0,0,11.629,13.954Zm0-1.744a1.163,1.163,0,0,0,1.163-1.163V7.559a1.163,1.163,0,0,0-2.326,0v3.489A1.163,1.163,0,0,0,11.629,12.21Zm0-12.21A11.629,11.629,0,1,0,23.257,11.629,11.629,11.629,0,0,0,11.629,0Zm0,20.931a9.3,9.3,0,1,1,9.3-9.3A9.3,9.3,0,0,1,11.629,20.931Z" transform="translate(23.257 23.257) rotate(180)"/>
</svg>
