<svg id="Group_311" data-name="Group 311" xmlns="http://www.w3.org/2000/svg" width="23.257" height="26.113" viewBox="0 0 23.257 26.113">
  <path id="Path_1040" data-name="Path 1040" d="M29.033,0h-.816a1.23,1.23,0,0,0-1.224,1.233V14.044c0,.006,0,.011,0,.017s0,.01,0,.016a.405.405,0,0,0,.075.234l1.178,2.976a.408.408,0,0,0,.759,0l1.178-2.976a.405.405,0,0,0,.075-.234c0-.005,0-.011,0-.016s0-.011,0-.017V1.233A1.23,1.23,0,0,0,29.033,0Zm.408,13.669H27.809V2.448h1.632Zm-13.873,8.16a4.284,4.284,0,1,0-4.284,4.284A4.284,4.284,0,0,0,15.568,21.829ZM11.284,25.3a3.468,3.468,0,1,1,3.468-3.468A3.468,3.468,0,0,1,11.284,25.3Z" transform="translate(-7 0)"/>
  <path id="Path_1041" data-name="Path 1041" d="M28.448,97.04H26.816V95.408a.408.408,0,1,0-.816,0v2.04a.408.408,0,0,0,.408.408h2.04a.408.408,0,0,0,0-.816Z" transform="translate(-22.124 -75.619)"/>
  <path id="Path_1042" data-name="Path 1042" d="M44.762,18.34l-.01,0a1.239,1.239,0,0,1-.207.019,1.218,1.218,0,0,1-1.138-.773L42.58,15.5a.454.454,0,0,1-.075.006H29.448a.408.408,0,1,1,0-.816H42.259l0-.01a1.214,1.214,0,0,1-.159-.6v-.2H29.448a.408.408,0,1,1,0-.816H42.1V12.24H29.448a.408.408,0,1,1,0-.816H42.1v-.816H29.448a.408.408,0,1,1,0-.816H42.1V8.976H29.448a.408.408,0,1,1,0-.816H42.1V7.344H29.448a.408.408,0,1,1,0-.816H42.1V5.712H29.448a.408.408,0,1,1,0-.816H42.1V1.233a2.054,2.054,0,0,1,.028-.326L42.11.816h.029A2.034,2.034,0,0,1,42.2.6c0-.013.009-.025.014-.037.02-.059.043-.116.068-.172l.013-.027q.042-.09.093-.176L42.39.179A2.053,2.053,0,0,1,42.511,0H31.061c-.041,0-.083,0-.123.006a.381.381,0,0,0-.3.069A1.218,1.218,0,0,0,30.2.358L27.358,3.2A1.216,1.216,0,0,0,27,4.061V16.734c.068,0,.136-.005.2-.005a5.1,5.1,0,0,1,3.512,8.793l-.008.008a5.134,5.134,0,0,1-.742.583H43.729a1.225,1.225,0,0,0,1.224-1.224v-6.6h0A1.219,1.219,0,0,1,44.762,18.34ZM33.936,3.264h4.08a.408.408,0,1,1,0,.816h-4.08a.408.408,0,0,1,0-.816Zm9.384,16.321a.408.408,0,0,1-.408.408h-7.14a.408.408,0,1,1,0-.816h7.14a.408.408,0,0,1,.408.408ZM30.468,1.24V2.816a.449.449,0,0,1-.448.448H28.444Zm-1.02,15.9a.408.408,0,1,1,0-.816H42.5a.408.408,0,0,1,0,.816Zm13.669,5.712H35.772a.408.408,0,1,1,0-.816h7.344a.408.408,0,0,1,0,.816Z" transform="translate(-22.92 0)"/>
</svg>
