<svg xmlns="http://www.w3.org/2000/svg" width="118.076" height="66.123" viewBox="0 0 118.076 66.123">
  <g id="Group_2479" data-name="Group 2479" transform="translate(-2 -7.5)">
    <path id="Path_1694" data-name="Path 1694" d="M72.846,73.623h-61.4A9.446,9.446,0,0,1,2,64.177V16.946A9.446,9.446,0,0,1,11.446,7.5h61.4a9.446,9.446,0,0,1,9.446,9.446v47.23A9.446,9.446,0,0,1,72.846,73.623Z" transform="translate(0 0)" fill="#fff"/>
    <path id="Path_1695" data-name="Path 1695" d="M21,23.157V51.5l20.994,14a4.723,4.723,0,0,0,7.344-3.934V13.093a4.723,4.723,0,0,0-7.344-3.93Z" transform="translate(70.738 3.235)" fill="#fa0"/>
  </g>
</svg>
