<svg xmlns="http://www.w3.org/2000/svg" width="120.894" height="120.894" viewBox="0 0 120.894 120.894">
  <g id="Group_2477" data-name="Group 2477" transform="translate(-5716.613 1321.407)">
    <path id="Path_1681" data-name="Path 1681" d="M21.3,59.012l19.45,15.13L8.9,106A24.989,24.989,0,0,1,4.39,96.039l0,0c-.135-.663-.224-1.335-.309-2.018-.02-.174-.06-.349-.08-.528-.085-.857-.13-1.724-.13-2.606V76.444ZM86.419,41.63l38.342,29.394V90.882a25.223,25.223,0,0,1-25.279,25.279H29.146c-.772,0-1.529-.045-2.282-.115-.239-.02-.478-.05-.717-.08-.508-.06-1.016-.135-1.515-.224-.284-.05-.568-.095-.852-.159h-.02c-.593-.13-1.176-.284-1.754-.453-.468-.139-.932-.3-1.385-.463-.125-.045-.249-.085-.374-.135a24.868,24.868,0,0,1-4.494-2.237ZM46.956,18.409A7.286,7.286,0,1,1,39.668,25.7,7.228,7.228,0,0,1,46.956,18.409Zm0-9.3A16.585,16.585,0,1,0,63.537,25.7,16.66,16.66,0,0,0,46.956,9.107Z" transform="translate(5712.746 -1316.674)" fill="#fff"/>
    <path id="Path_1689" data-name="Path 1689" d="M46.956,17.707A16.585,16.585,0,1,0,63.537,34.3,16.66,16.66,0,0,0,46.956,17.707ZM29.146,3.867H99.482a25.222,25.222,0,0,1,25.279,25.274V67.906L88.845,40.37a4.651,4.651,0,0,0-6.118.4L47.38,76.116,23.77,57.748a4.646,4.646,0,0,0-6.143.384L3.867,71.9V29.141A25.222,25.222,0,0,1,29.146,3.867Z" transform="translate(5712.746 -1325.274)" fill="#fa0"/>
  </g>
</svg>
